ISO-10303-21;
HEADER;
FILE_DESCRIPTION(('Open CASCADE Model'),'2;1');
FILE_NAME('Open CASCADE Shape Model','2026-09-25T09:18:18',('Author'),(
    'Open CASCADE'),'Open CASCADE STEP processor 8.0','build123d',
  'Unknown');
FILE_SCHEMA(('AUTOMOTIVE_DESIGN { 1 0 10303 214 1 1 1 1 }'));
ENDSEC;
DATA;
#1 = APPLICATION_PROTOCOL_DEFINITION('international standard',
  'automotive_design',2000,#2);
#2 = APPLICATION_CONTEXT(
  'core data for automotive mechanical design processes');
#3 = SHAPE_DEFINITION_REPRESENTATION(#4,#10);
#4 = PRODUCT_DEFINITION_SHAPE('','',#5);
#5 = PRODUCT_DEFINITION('design','',#6,#9);
#6 = PRODUCT_DEFINITION_FORMATION('','',#7);
#7 = PRODUCT('COMPOUND','COMPOUND','',(#8));
#8 = PRODUCT_CONTEXT('',#2,'mechanical');
#9 = PRODUCT_DEFINITION_CONTEXT('part definition',#2,'design');
#10 = ADVANCED_BREP_SHAPE_REPRESENTATION('',(#11,#15),#1390);
#11 = AXIS2_PLACEMENT_3D('',#12,#13,#14);
#12 = CARTESIAN_POINT('',(0.,0.,0.));
#13 = DIRECTION('',(0.,0.,1.));
#14 = DIRECTION('',(1.,0.,-0.));
#15 = MANIFOLD_SOLID_BREP('',#16);
#16 = CLOSED_SHELL('',(#17,#135,#208,#515,#565,#800,#828,#856,#884,#912,
    #940,#1240,#1268,#1296,#1324,#1352,#1359,#1385));
#17 = ADVANCED_FACE('',(#18),#33,.T.);
#18 = FACE_BOUND('',#19,.T.);
#19 = EDGE_LOOP('',(#20,#56,#82,#111));
#20 = ORIENTED_EDGE('',*,*,#21,.F.);
#21 = EDGE_CURVE('',#22,#24,#26,.T.);
#22 = VERTEX_POINT('',#23);
#23 = CARTESIAN_POINT('',(15.389271425249,8.885,9.05));
#24 = VERTEX_POINT('',#25);
#25 = CARTESIAN_POINT('',(-15.38927142524,8.885,9.05));
#26 = SURFACE_CURVE('',#27,(#32,#44),.PCURVE_S1.);
#27 = CIRCLE('',#28,17.77);
#28 = AXIS2_PLACEMENT_3D('',#29,#30,#31);
#29 = CARTESIAN_POINT('',(0.,0.,9.05));
#30 = DIRECTION('',(0.,0.,1.));
#31 = DIRECTION('',(1.,0.,-0.));
#32 = PCURVE('',#33,#38);
#33 = CYLINDRICAL_SURFACE('',#34,17.77);
#34 = AXIS2_PLACEMENT_3D('',#35,#36,#37);
#35 = CARTESIAN_POINT('',(0.,0.,-0.6));
#36 = DIRECTION('',(0.,0.,1.));
#37 = DIRECTION('',(1.,0.,-0.));
#38 = DEFINITIONAL_REPRESENTATION('',(#39),#43);
#39 = LINE('',#40,#41);
#40 = CARTESIAN_POINT('',(0.,9.65));
#41 = VECTOR('',#42,1.);
#42 = DIRECTION('',(1.,0.));
#43 = ( GEOMETRIC_REPRESENTATION_CONTEXT(2) 
PARAMETRIC_REPRESENTATION_CONTEXT() REPRESENTATION_CONTEXT('2D SPACE',''
  ) );
#44 = PCURVE('',#45,#50);
#45 = PLANE('',#46);
#46 = AXIS2_PLACEMENT_3D('',#47,#48,#49);
#47 = CARTESIAN_POINT('',(0.,0.,9.05));
#48 = DIRECTION('',(0.,0.,1.));
#49 = DIRECTION('',(1.,0.,-0.));
#50 = DEFINITIONAL_REPRESENTATION('',(#51),#55);
#51 = CIRCLE('',#52,17.77);
#52 = AXIS2_PLACEMENT_2D('',#53,#54);
#53 = CARTESIAN_POINT('',(0.,0.));
#54 = DIRECTION('',(1.,0.));
#55 = ( GEOMETRIC_REPRESENTATION_CONTEXT(2) 
PARAMETRIC_REPRESENTATION_CONTEXT() REPRESENTATION_CONTEXT('2D SPACE',''
  ) );
#56 = ORIENTED_EDGE('',*,*,#57,.F.);
#57 = EDGE_CURVE('',#58,#22,#60,.T.);
#58 = VERTEX_POINT('',#59);
#59 = CARTESIAN_POINT('',(15.38927142525,8.884999999999,-0.6));
#60 = SURFACE_CURVE('',#61,(#65,#71),.PCURVE_S1.);
#61 = LINE('',#62,#63);
#62 = CARTESIAN_POINT('',(15.389271425249,8.885,-0.6));
#63 = VECTOR('',#64,1.);
#64 = DIRECTION('',(0.,0.,1.));
#65 = PCURVE('',#33,#66);
#66 = DEFINITIONAL_REPRESENTATION('',(#67),#70);
#67 = B_SPLINE_CURVE_WITH_KNOTS('',1,(#68,#69),.UNSPECIFIED.,.F.,.F.,(2,
    2),(-6.000000000173E-07,9.6500006),.PIECEWISE_BEZIER_KNOTS.);
#68 = CARTESIAN_POINT('',(0.523598775598,-6.000000000173E-07));
#69 = CARTESIAN_POINT('',(0.523598775598,9.6500006));
#70 = ( GEOMETRIC_REPRESENTATION_CONTEXT(2) 
PARAMETRIC_REPRESENTATION_CONTEXT() REPRESENTATION_CONTEXT('2D SPACE',''
  ) );
#71 = PCURVE('',#72,#77);
#72 = PLANE('',#73);
#73 = AXIS2_PLACEMENT_3D('',#74,#75,#76);
#74 = CARTESIAN_POINT('',(0.,0.,-0.6));
#75 = DIRECTION('',(-0.5,0.866025403784,0.));
#76 = DIRECTION('',(0.866025403784,0.5,0.));
#77 = DEFINITIONAL_REPRESENTATION('',(#78),#81);
#78 = B_SPLINE_CURVE_WITH_KNOTS('',1,(#79,#80),.UNSPECIFIED.,.F.,.F.,(2,
    2),(-6.000000000173E-07,9.6500006),.PIECEWISE_BEZIER_KNOTS.);
#79 = CARTESIAN_POINT('',(17.77,6.000000000173E-07));
#80 = CARTESIAN_POINT('',(17.77,-9.6500006));
#81 = ( GEOMETRIC_REPRESENTATION_CONTEXT(2) 
PARAMETRIC_REPRESENTATION_CONTEXT() REPRESENTATION_CONTEXT('2D SPACE',''
  ) );
#82 = ORIENTED_EDGE('',*,*,#83,.T.);
#83 = EDGE_CURVE('',#58,#84,#86,.T.);
#84 = VERTEX_POINT('',#85);
#85 = CARTESIAN_POINT('',(-15.38927142525,8.884999999999,-0.6));
#86 = SURFACE_CURVE('',#87,(#92,#99),.PCURVE_S1.);
#87 = CIRCLE('',#88,17.77);
#88 = AXIS2_PLACEMENT_3D('',#89,#90,#91);
#89 = CARTESIAN_POINT('',(0.,0.,-0.6));
#90 = DIRECTION('',(0.,0.,1.));
#91 = DIRECTION('',(1.,0.,-0.));
#92 = PCURVE('',#33,#93);
#93 = DEFINITIONAL_REPRESENTATION('',(#94),#98);
#94 = LINE('',#95,#96);
#95 = CARTESIAN_POINT('',(0.,0.));
#96 = VECTOR('',#97,1.);
#97 = DIRECTION('',(1.,0.));
#98 = ( GEOMETRIC_REPRESENTATION_CONTEXT(2) 
PARAMETRIC_REPRESENTATION_CONTEXT() REPRESENTATION_CONTEXT('2D SPACE',''
  ) );
#99 = PCURVE('',#100,#105);
#100 = PLANE('',#101);
#101 = AXIS2_PLACEMENT_3D('',#102,#103,#104);
#102 = CARTESIAN_POINT('',(0.,0.,-0.6));
#103 = DIRECTION('',(0.,0.,1.));
#104 = DIRECTION('',(1.,0.,-0.));
#105 = DEFINITIONAL_REPRESENTATION('',(#106),#110);
#106 = CIRCLE('',#107,17.77);
#107 = AXIS2_PLACEMENT_2D('',#108,#109);
#108 = CARTESIAN_POINT('',(0.,0.));
#109 = DIRECTION('',(1.,0.));
#110 = ( GEOMETRIC_REPRESENTATION_CONTEXT(2) 
PARAMETRIC_REPRESENTATION_CONTEXT() REPRESENTATION_CONTEXT('2D SPACE',''
  ) );
#111 = ORIENTED_EDGE('',*,*,#112,.T.);
#112 = EDGE_CURVE('',#84,#24,#113,.T.);
#113 = SURFACE_CURVE('',#114,(#118,#124),.PCURVE_S1.);
#114 = LINE('',#115,#116);
#115 = CARTESIAN_POINT('',(-15.38927142524,8.885,-0.6));
#116 = VECTOR('',#117,1.);
#117 = DIRECTION('',(0.,0.,1.));
#118 = PCURVE('',#33,#119);
#119 = DEFINITIONAL_REPRESENTATION('',(#120),#123);
#120 = B_SPLINE_CURVE_WITH_KNOTS('',1,(#121,#122),.UNSPECIFIED.,.F.,.F.,
  (2,2),(-6.000000000173E-07,9.6500006),.PIECEWISE_BEZIER_KNOTS.);
#121 = CARTESIAN_POINT('',(2.617993877991,-6.000000000173E-07));
#122 = CARTESIAN_POINT('',(2.617993877991,9.6500006));
#123 = ( GEOMETRIC_REPRESENTATION_CONTEXT(2) 
PARAMETRIC_REPRESENTATION_CONTEXT() REPRESENTATION_CONTEXT('2D SPACE',''
  ) );
#124 = PCURVE('',#125,#130);
#125 = PLANE('',#126);
#126 = AXIS2_PLACEMENT_3D('',#127,#128,#129);
#127 = CARTESIAN_POINT('',(-51.96152422706,30.,-0.6));
#128 = DIRECTION('',(0.5,0.866025403784,-0.));
#129 = DIRECTION('',(0.866025403784,-0.5,0.));
#130 = DEFINITIONAL_REPRESENTATION('',(#131),#134);
#131 = B_SPLINE_CURVE_WITH_KNOTS('',1,(#132,#133),.UNSPECIFIED.,.F.,.F.,
  (2,2),(-6.000000000173E-07,9.6500006),.PIECEWISE_BEZIER_KNOTS.);
#132 = CARTESIAN_POINT('',(42.23,6.000000000173E-07));
#133 = CARTESIAN_POINT('',(42.23,-9.6500006));
#134 = ( GEOMETRIC_REPRESENTATION_CONTEXT(2) 
PARAMETRIC_REPRESENTATION_CONTEXT() REPRESENTATION_CONTEXT('2D SPACE',''
  ) );
#135 = ADVANCED_FACE('',(#136),#45,.F.);
#136 = FACE_BOUND('',#137,.F.);
#137 = EDGE_LOOP('',(#138,#159,#188,#207));
#138 = ORIENTED_EDGE('',*,*,#139,.F.);
#139 = EDGE_CURVE('',#140,#22,#142,.T.);
#140 = VERTEX_POINT('',#141);
#141 = CARTESIAN_POINT('',(15.415252187363,8.9,9.05));
#142 = SURFACE_CURVE('',#143,(#147,#153),.PCURVE_S1.);
#143 = LINE('',#144,#145);
#144 = CARTESIAN_POINT('',(0.,0.,9.05));
#145 = VECTOR('',#146,1.);
#146 = DIRECTION('',(-0.866025403784,-0.5,0.));
#147 = PCURVE('',#45,#148);
#148 = DEFINITIONAL_REPRESENTATION('',(#149),#152);
#149 = B_SPLINE_CURVE_WITH_KNOTS('',1,(#150,#151),.UNSPECIFIED.,.F.,.F.,
  (2,2),(-20.55366958315,-0.),.PIECEWISE_BEZIER_KNOTS.);
#150 = CARTESIAN_POINT('',(17.8,10.276834791575));
#151 = CARTESIAN_POINT('',(0.,0.));
#152 = ( GEOMETRIC_REPRESENTATION_CONTEXT(2) 
PARAMETRIC_REPRESENTATION_CONTEXT() REPRESENTATION_CONTEXT('2D SPACE',''
  ) );
#153 = PCURVE('',#72,#154);
#154 = DEFINITIONAL_REPRESENTATION('',(#155),#158);
#155 = B_SPLINE_CURVE_WITH_KNOTS('',1,(#156,#157),.UNSPECIFIED.,.F.,.F.,
  (2,2),(-20.55366958315,-0.),.PIECEWISE_BEZIER_KNOTS.);
#156 = CARTESIAN_POINT('',(20.553669583151,-9.65));
#157 = CARTESIAN_POINT('',(0.,-9.65));
#158 = ( GEOMETRIC_REPRESENTATION_CONTEXT(2) 
PARAMETRIC_REPRESENTATION_CONTEXT() REPRESENTATION_CONTEXT('2D SPACE',''
  ) );
#159 = ORIENTED_EDGE('',*,*,#160,.T.);
#160 = EDGE_CURVE('',#140,#161,#163,.T.);
#161 = VERTEX_POINT('',#162);
#162 = CARTESIAN_POINT('',(-15.41525218736,8.9,9.05));
#163 = SURFACE_CURVE('',#164,(#169,#176),.PCURVE_S1.);
#164 = CIRCLE('',#165,17.8);
#165 = AXIS2_PLACEMENT_3D('',#166,#167,#168);
#166 = CARTESIAN_POINT('',(0.,0.,9.05));
#167 = DIRECTION('',(0.,0.,1.));
#168 = DIRECTION('',(1.,0.,-0.));
#169 = PCURVE('',#45,#170);
#170 = DEFINITIONAL_REPRESENTATION('',(#171),#175);
#171 = CIRCLE('',#172,17.8);
#172 = AXIS2_PLACEMENT_2D('',#173,#174);
#173 = CARTESIAN_POINT('',(0.,0.));
#174 = DIRECTION('',(1.,0.));
#175 = ( GEOMETRIC_REPRESENTATION_CONTEXT(2) 
PARAMETRIC_REPRESENTATION_CONTEXT() REPRESENTATION_CONTEXT('2D SPACE',''
  ) );
#176 = PCURVE('',#177,#182);
#177 = CYLINDRICAL_SURFACE('',#178,17.8);
#178 = AXIS2_PLACEMENT_3D('',#179,#180,#181);
#179 = CARTESIAN_POINT('',(0.,0.,9.05));
#180 = DIRECTION('',(0.,0.,1.));
#181 = DIRECTION('',(1.,0.,-0.));
#182 = DEFINITIONAL_REPRESENTATION('',(#183),#187);
#183 = LINE('',#184,#185);
#184 = CARTESIAN_POINT('',(0.,0.));
#185 = VECTOR('',#186,1.);
#186 = DIRECTION('',(1.,0.));
#187 = ( GEOMETRIC_REPRESENTATION_CONTEXT(2) 
PARAMETRIC_REPRESENTATION_CONTEXT() REPRESENTATION_CONTEXT('2D SPACE',''
  ) );
#188 = ORIENTED_EDGE('',*,*,#189,.F.);
#189 = EDGE_CURVE('',#24,#161,#190,.T.);
#190 = SURFACE_CURVE('',#191,(#195,#201),.PCURVE_S1.);
#191 = LINE('',#192,#193);
#192 = CARTESIAN_POINT('',(-25.98076211353,15.,9.05));
#193 = VECTOR('',#194,1.);
#194 = DIRECTION('',(-0.866025403784,0.5,0.));
#195 = PCURVE('',#45,#196);
#196 = DEFINITIONAL_REPRESENTATION('',(#197),#200);
#197 = B_SPLINE_CURVE_WITH_KNOTS('',1,(#198,#199),.UNSPECIFIED.,.F.,.F.,
  (2,2),(-30.,-9.446330416849),.PIECEWISE_BEZIER_KNOTS.);
#198 = CARTESIAN_POINT('',(1.554312234475E-15,2.442490654175E-15));
#199 = CARTESIAN_POINT('',(-17.8,10.276834791575));
#200 = ( GEOMETRIC_REPRESENTATION_CONTEXT(2) 
PARAMETRIC_REPRESENTATION_CONTEXT() REPRESENTATION_CONTEXT('2D SPACE',''
  ) );
#201 = PCURVE('',#125,#202);
#202 = DEFINITIONAL_REPRESENTATION('',(#203),#206);
#203 = B_SPLINE_CURVE_WITH_KNOTS('',1,(#204,#205),.UNSPECIFIED.,.F.,.F.,
  (2,2),(-30.,-9.446330416849),.PIECEWISE_BEZIER_KNOTS.);
#204 = CARTESIAN_POINT('',(60.,-9.65));
#205 = CARTESIAN_POINT('',(39.446330416849,-9.65));
#206 = ( GEOMETRIC_REPRESENTATION_CONTEXT(2) 
PARAMETRIC_REPRESENTATION_CONTEXT() REPRESENTATION_CONTEXT('2D SPACE',''
  ) );
#207 = ORIENTED_EDGE('',*,*,#21,.F.);
#208 = ADVANCED_FACE('',(#209),#125,.F.);
#209 = FACE_BOUND('',#210,.F.);
#210 = EDGE_LOOP('',(#211,#234,#235,#236,#257,#283,#309,#335,#361,#387,
    #413,#439,#465,#491));
#211 = ORIENTED_EDGE('',*,*,#212,.F.);
#212 = EDGE_CURVE('',#84,#213,#215,.T.);
#213 = VERTEX_POINT('',#214);
#214 = CARTESIAN_POINT('',(-14.04693204938,8.11,-0.6));
#215 = SURFACE_CURVE('',#216,(#220,#227),.PCURVE_S1.);
#216 = LINE('',#217,#218);
#217 = CARTESIAN_POINT('',(-51.96152422706,30.,-0.6));
#218 = VECTOR('',#219,1.);
#219 = DIRECTION('',(0.866025403784,-0.5,0.));
#220 = PCURVE('',#125,#221);
#221 = DEFINITIONAL_REPRESENTATION('',(#222),#226);
#222 = LINE('',#223,#224);
#223 = CARTESIAN_POINT('',(0.,0.));
#224 = VECTOR('',#225,1.);
#225 = DIRECTION('',(1.,0.));
#226 = ( GEOMETRIC_REPRESENTATION_CONTEXT(2) 
PARAMETRIC_REPRESENTATION_CONTEXT() REPRESENTATION_CONTEXT('2D SPACE',''
  ) );
#227 = PCURVE('',#100,#228);
#228 = DEFINITIONAL_REPRESENTATION('',(#229),#233);
#229 = LINE('',#230,#231);
#230 = CARTESIAN_POINT('',(-51.96152422706,30.));
#231 = VECTOR('',#232,1.);
#232 = DIRECTION('',(0.866025403784,-0.5));
#233 = ( GEOMETRIC_REPRESENTATION_CONTEXT(2) 
PARAMETRIC_REPRESENTATION_CONTEXT() REPRESENTATION_CONTEXT('2D SPACE',''
  ) );
#234 = ORIENTED_EDGE('',*,*,#112,.T.);
#235 = ORIENTED_EDGE('',*,*,#189,.T.);
#236 = ORIENTED_EDGE('',*,*,#237,.T.);
#237 = EDGE_CURVE('',#161,#238,#240,.T.);
#238 = VERTEX_POINT('',#239);
#239 = CARTESIAN_POINT('',(-15.41525218736,8.9,10.65));
#240 = SURFACE_CURVE('',#241,(#245,#251),.PCURVE_S1.);
#241 = LINE('',#242,#243);
#242 = CARTESIAN_POINT('',(-15.41525218736,8.9,9.05));
#243 = VECTOR('',#244,1.);
#244 = DIRECTION('',(0.,0.,1.));
#245 = PCURVE('',#125,#246);
#246 = DEFINITIONAL_REPRESENTATION('',(#247),#250);
#247 = B_SPLINE_CURVE_WITH_KNOTS('',1,(#248,#249),.UNSPECIFIED.,.F.,.F.,
  (2,2),(-5.999999999062E-07,1.6000006),.PIECEWISE_BEZIER_KNOTS.);
#248 = CARTESIAN_POINT('',(42.2,-9.6499994));
#249 = CARTESIAN_POINT('',(42.2,-11.2500006));
#250 = ( GEOMETRIC_REPRESENTATION_CONTEXT(2) 
PARAMETRIC_REPRESENTATION_CONTEXT() REPRESENTATION_CONTEXT('2D SPACE',''
  ) );
#251 = PCURVE('',#177,#252);
#252 = DEFINITIONAL_REPRESENTATION('',(#253),#256);
#253 = B_SPLINE_CURVE_WITH_KNOTS('',1,(#254,#255),.UNSPECIFIED.,.F.,.F.,
  (2,2),(-5.999999999062E-07,1.6000006),.PIECEWISE_BEZIER_KNOTS.);
#254 = CARTESIAN_POINT('',(2.617993877991,-5.999999999062E-07));
#255 = CARTESIAN_POINT('',(2.617993877991,1.6000006));
#256 = ( GEOMETRIC_REPRESENTATION_CONTEXT(2) 
PARAMETRIC_REPRESENTATION_CONTEXT() REPRESENTATION_CONTEXT('2D SPACE',''
  ) );
#257 = ORIENTED_EDGE('',*,*,#258,.F.);
#258 = EDGE_CURVE('',#259,#238,#261,.T.);
#259 = VERTEX_POINT('',#260);
#260 = CARTESIAN_POINT('',(-14.0296115413,8.1,10.65));
#261 = SURFACE_CURVE('',#262,(#266,#272),.PCURVE_S1.);
#262 = LINE('',#263,#264);
#263 = CARTESIAN_POINT('',(-25.98076211353,15.,10.65));
#264 = VECTOR('',#265,1.);
#265 = DIRECTION('',(-0.866025403784,0.5,0.));
#266 = PCURVE('',#125,#267);
#267 = DEFINITIONAL_REPRESENTATION('',(#268),#271);
#268 = B_SPLINE_CURVE_WITH_KNOTS('',1,(#269,#270),.UNSPECIFIED.,.F.,.F.,
  (2,2),(-30.,-9.446330416849),.PIECEWISE_BEZIER_KNOTS.);
#269 = CARTESIAN_POINT('',(60.,-11.25));
#270 = CARTESIAN_POINT('',(39.446330416849,-11.25));
#271 = ( GEOMETRIC_REPRESENTATION_CONTEXT(2) 
PARAMETRIC_REPRESENTATION_CONTEXT() REPRESENTATION_CONTEXT('2D SPACE',''
  ) );
#272 = PCURVE('',#273,#278);
#273 = PLANE('',#274);
#274 = AXIS2_PLACEMENT_3D('',#275,#276,#277);
#275 = CARTESIAN_POINT('',(0.,0.,10.65));
#276 = DIRECTION('',(0.,0.,1.));
#277 = DIRECTION('',(1.,0.,-0.));
#278 = DEFINITIONAL_REPRESENTATION('',(#279),#282);
#279 = B_SPLINE_CURVE_WITH_KNOTS('',1,(#280,#281),.UNSPECIFIED.,.F.,.F.,
  (2,2),(-30.,-9.446330416849),.PIECEWISE_BEZIER_KNOTS.);
#280 = CARTESIAN_POINT('',(1.554312234475E-15,2.442490654175E-15));
#281 = CARTESIAN_POINT('',(-17.8,10.276834791575));
#282 = ( GEOMETRIC_REPRESENTATION_CONTEXT(2) 
PARAMETRIC_REPRESENTATION_CONTEXT() REPRESENTATION_CONTEXT('2D SPACE',''
  ) );
#283 = ORIENTED_EDGE('',*,*,#284,.F.);
#284 = EDGE_CURVE('',#285,#259,#287,.T.);
#285 = VERTEX_POINT('',#286);
#286 = CARTESIAN_POINT('',(-14.0296115413,8.1,9.05));
#287 = SURFACE_CURVE('',#288,(#292,#298),.PCURVE_S1.);
#288 = LINE('',#289,#290);
#289 = CARTESIAN_POINT('',(-14.0296115413,8.1,9.05));
#290 = VECTOR('',#291,1.);
#291 = DIRECTION('',(0.,0.,1.));
#292 = PCURVE('',#125,#293);
#293 = DEFINITIONAL_REPRESENTATION('',(#294),#297);
#294 = B_SPLINE_CURVE_WITH_KNOTS('',1,(#295,#296),.UNSPECIFIED.,.F.,.F.,
  (2,2),(-5.999999999062E-07,1.6000006),.PIECEWISE_BEZIER_KNOTS.);
#295 = CARTESIAN_POINT('',(43.8,-9.6499994));
#296 = CARTESIAN_POINT('',(43.8,-11.2500006));
#297 = ( GEOMETRIC_REPRESENTATION_CONTEXT(2) 
PARAMETRIC_REPRESENTATION_CONTEXT() REPRESENTATION_CONTEXT('2D SPACE',''
  ) );
#298 = PCURVE('',#299,#304);
#299 = CYLINDRICAL_SURFACE('',#300,16.2);
#300 = AXIS2_PLACEMENT_3D('',#301,#302,#303);
#301 = CARTESIAN_POINT('',(0.,0.,9.05));
#302 = DIRECTION('',(0.,0.,1.));
#303 = DIRECTION('',(1.,0.,-0.));
#304 = DEFINITIONAL_REPRESENTATION('',(#305),#308);
#305 = B_SPLINE_CURVE_WITH_KNOTS('',1,(#306,#307),.UNSPECIFIED.,.F.,.F.,
  (2,2),(-5.999999999062E-07,1.6000006),.PIECEWISE_BEZIER_KNOTS.);
#306 = CARTESIAN_POINT('',(2.617993877991,-5.999999999062E-07));
#307 = CARTESIAN_POINT('',(2.617993877991,1.6000006));
#308 = ( GEOMETRIC_REPRESENTATION_CONTEXT(2) 
PARAMETRIC_REPRESENTATION_CONTEXT() REPRESENTATION_CONTEXT('2D SPACE',''
  ) );
#309 = ORIENTED_EDGE('',*,*,#310,.F.);
#310 = EDGE_CURVE('',#311,#285,#313,.T.);
#311 = VERTEX_POINT('',#312);
#312 = CARTESIAN_POINT('',(-13.46669502884,7.775,9.05));
#313 = SURFACE_CURVE('',#314,(#318,#324),.PCURVE_S1.);
#314 = LINE('',#315,#316);
#315 = CARTESIAN_POINT('',(-25.98076211353,15.,9.05));
#316 = VECTOR('',#317,1.);
#317 = DIRECTION('',(-0.866025403784,0.5,0.));
#318 = PCURVE('',#125,#319);
#319 = DEFINITIONAL_REPRESENTATION('',(#320),#323);
#320 = B_SPLINE_CURVE_WITH_KNOTS('',1,(#321,#322),.UNSPECIFIED.,.F.,.F.,
  (2,2),(-30.,-11.29385127825),.PIECEWISE_BEZIER_KNOTS.);
#321 = CARTESIAN_POINT('',(60.,-9.65));
#322 = CARTESIAN_POINT('',(41.293851278256,-9.65));
#323 = ( GEOMETRIC_REPRESENTATION_CONTEXT(2) 
PARAMETRIC_REPRESENTATION_CONTEXT() REPRESENTATION_CONTEXT('2D SPACE',''
  ) );
#324 = PCURVE('',#325,#330);
#325 = PLANE('',#326);
#326 = AXIS2_PLACEMENT_3D('',#327,#328,#329);
#327 = CARTESIAN_POINT('',(0.,0.,9.05));
#328 = DIRECTION('',(0.,0.,1.));
#329 = DIRECTION('',(1.,0.,-0.));
#330 = DEFINITIONAL_REPRESENTATION('',(#331),#334);
#331 = B_SPLINE_CURVE_WITH_KNOTS('',1,(#332,#333),.UNSPECIFIED.,.F.,.F.,
  (2,2),(-30.,-11.29385127825),.PIECEWISE_BEZIER_KNOTS.);
#332 = CARTESIAN_POINT('',(1.554312234475E-15,2.442490654175E-15));
#333 = CARTESIAN_POINT('',(-16.2,9.353074360872));
#334 = ( GEOMETRIC_REPRESENTATION_CONTEXT(2) 
PARAMETRIC_REPRESENTATION_CONTEXT() REPRESENTATION_CONTEXT('2D SPACE',''
  ) );
#335 = ORIENTED_EDGE('',*,*,#336,.F.);
#336 = EDGE_CURVE('',#337,#311,#339,.T.);
#337 = VERTEX_POINT('',#338);
#338 = CARTESIAN_POINT('',(-13.46669502884,7.775,7.85));
#339 = SURFACE_CURVE('',#340,(#344,#350),.PCURVE_S1.);
#340 = LINE('',#341,#342);
#341 = CARTESIAN_POINT('',(-13.46669502884,7.775,7.85));
#342 = VECTOR('',#343,1.);
#343 = DIRECTION('',(0.,0.,1.));
#344 = PCURVE('',#125,#345);
#345 = DEFINITIONAL_REPRESENTATION('',(#346),#349);
#346 = B_SPLINE_CURVE_WITH_KNOTS('',1,(#347,#348),.UNSPECIFIED.,.F.,.F.,
  (2,2),(-5.999999999062E-07,1.2000006),.PIECEWISE_BEZIER_KNOTS.);
#347 = CARTESIAN_POINT('',(44.45,-8.4499994));
#348 = CARTESIAN_POINT('',(44.45,-9.6500006));
#349 = ( GEOMETRIC_REPRESENTATION_CONTEXT(2) 
PARAMETRIC_REPRESENTATION_CONTEXT() REPRESENTATION_CONTEXT('2D SPACE',''
  ) );
#350 = PCURVE('',#351,#356);
#351 = CYLINDRICAL_SURFACE('',#352,15.55);
#352 = AXIS2_PLACEMENT_3D('',#353,#354,#355);
#353 = CARTESIAN_POINT('',(0.,0.,7.85));
#354 = DIRECTION('',(0.,0.,1.));
#355 = DIRECTION('',(1.,0.,-0.));
#356 = DEFINITIONAL_REPRESENTATION('',(#357),#360);
#357 = B_SPLINE_CURVE_WITH_KNOTS('',1,(#358,#359),.UNSPECIFIED.,.F.,.F.,
  (2,2),(-5.999999999062E-07,1.2000006),.PIECEWISE_BEZIER_KNOTS.);
#358 = CARTESIAN_POINT('',(2.617993877991,-5.999999999062E-07));
#359 = CARTESIAN_POINT('',(2.617993877991,1.2000006));
#360 = ( GEOMETRIC_REPRESENTATION_CONTEXT(2) 
PARAMETRIC_REPRESENTATION_CONTEXT() REPRESENTATION_CONTEXT('2D SPACE',''
  ) );
#361 = ORIENTED_EDGE('',*,*,#362,.T.);
#362 = EDGE_CURVE('',#337,#363,#365,.T.);
#363 = VERTEX_POINT('',#364);
#364 = CARTESIAN_POINT('',(-14.04693204938,8.11,7.85));
#365 = SURFACE_CURVE('',#366,(#370,#376),.PCURVE_S1.);
#366 = LINE('',#367,#368);
#367 = CARTESIAN_POINT('',(-25.98076211353,15.,7.85));
#368 = VECTOR('',#369,1.);
#369 = DIRECTION('',(-0.866025403784,0.5,0.));
#370 = PCURVE('',#125,#371);
#371 = DEFINITIONAL_REPRESENTATION('',(#372),#375);
#372 = B_SPLINE_CURVE_WITH_KNOTS('',1,(#373,#374),.UNSPECIFIED.,.F.,.F.,
  (2,2),(-30.,-11.27075726748),.PIECEWISE_BEZIER_KNOTS.);
#373 = CARTESIAN_POINT('',(60.,-8.45));
#374 = CARTESIAN_POINT('',(41.270757267489,-8.45));
#375 = ( GEOMETRIC_REPRESENTATION_CONTEXT(2) 
PARAMETRIC_REPRESENTATION_CONTEXT() REPRESENTATION_CONTEXT('2D SPACE',''
  ) );
#376 = PCURVE('',#377,#382);
#377 = PLANE('',#378);
#378 = AXIS2_PLACEMENT_3D('',#379,#380,#381);
#379 = CARTESIAN_POINT('',(0.,0.,7.85));
#380 = DIRECTION('',(0.,0.,1.));
#381 = DIRECTION('',(1.,0.,-0.));
#382 = DEFINITIONAL_REPRESENTATION('',(#383),#386);
#383 = B_SPLINE_CURVE_WITH_KNOTS('',1,(#384,#385),.UNSPECIFIED.,.F.,.F.,
  (2,2),(-30.,-11.27075726748),.PIECEWISE_BEZIER_KNOTS.);
#384 = CARTESIAN_POINT('',(1.554312234475E-15,2.442490654175E-15));
#385 = CARTESIAN_POINT('',(-16.22,9.364621366256));
#386 = ( GEOMETRIC_REPRESENTATION_CONTEXT(2) 
PARAMETRIC_REPRESENTATION_CONTEXT() REPRESENTATION_CONTEXT('2D SPACE',''
  ) );
#387 = ORIENTED_EDGE('',*,*,#388,.F.);
#388 = EDGE_CURVE('',#389,#363,#391,.T.);
#389 = VERTEX_POINT('',#390);
#390 = CARTESIAN_POINT('',(-14.04693204938,8.11,-0.1));
#391 = SURFACE_CURVE('',#392,(#396,#402),.PCURVE_S1.);
#392 = LINE('',#393,#394);
#393 = CARTESIAN_POINT('',(-14.04693204938,8.11,-0.6));
#394 = VECTOR('',#395,1.);
#395 = DIRECTION('',(0.,0.,1.));
#396 = PCURVE('',#125,#397);
#397 = DEFINITIONAL_REPRESENTATION('',(#398),#401);
#398 = B_SPLINE_CURVE_WITH_KNOTS('',1,(#399,#400),.UNSPECIFIED.,.F.,.F.,
  (2,2),(0.4999994,8.4500006),.PIECEWISE_BEZIER_KNOTS.);
#399 = CARTESIAN_POINT('',(43.78,-0.4999994));
#400 = CARTESIAN_POINT('',(43.78,-8.4500006));
#401 = ( GEOMETRIC_REPRESENTATION_CONTEXT(2) 
PARAMETRIC_REPRESENTATION_CONTEXT() REPRESENTATION_CONTEXT('2D SPACE',''
  ) );
#402 = PCURVE('',#403,#408);
#403 = CYLINDRICAL_SURFACE('',#404,16.22);
#404 = AXIS2_PLACEMENT_3D('',#405,#406,#407);
#405 = CARTESIAN_POINT('',(0.,0.,-0.6));
#406 = DIRECTION('',(0.,0.,1.));
#407 = DIRECTION('',(1.,0.,-0.));
#408 = DEFINITIONAL_REPRESENTATION('',(#409),#412);
#409 = B_SPLINE_CURVE_WITH_KNOTS('',1,(#410,#411),.UNSPECIFIED.,.F.,.F.,
  (2,2),(0.4999994,8.4500006),.PIECEWISE_BEZIER_KNOTS.);
#410 = CARTESIAN_POINT('',(2.617993877991,0.4999994));
#411 = CARTESIAN_POINT('',(2.617993877991,8.4500006));
#412 = ( GEOMETRIC_REPRESENTATION_CONTEXT(2) 
PARAMETRIC_REPRESENTATION_CONTEXT() REPRESENTATION_CONTEXT('2D SPACE',''
  ) );
#413 = ORIENTED_EDGE('',*,*,#414,.F.);
#414 = EDGE_CURVE('',#415,#389,#417,.T.);
#415 = VERTEX_POINT('',#416);
#416 = CARTESIAN_POINT('',(-13.52731680711,7.81,-0.1));
#417 = SURFACE_CURVE('',#418,(#422,#428),.PCURVE_S1.);
#418 = LINE('',#419,#420);
#419 = CARTESIAN_POINT('',(-25.98076211353,15.,-0.1));
#420 = VECTOR('',#421,1.);
#421 = DIRECTION('',(-0.866025403784,0.5,0.));
#422 = PCURVE('',#125,#423);
#423 = DEFINITIONAL_REPRESENTATION('',(#424),#427);
#424 = B_SPLINE_CURVE_WITH_KNOTS('',1,(#425,#426),.UNSPECIFIED.,.F.,.F.,
  (2,2),(-30.,-11.27075726748),.PIECEWISE_BEZIER_KNOTS.);
#425 = CARTESIAN_POINT('',(60.,-0.5));
#426 = CARTESIAN_POINT('',(41.270757267489,-0.5));
#427 = ( GEOMETRIC_REPRESENTATION_CONTEXT(2) 
PARAMETRIC_REPRESENTATION_CONTEXT() REPRESENTATION_CONTEXT('2D SPACE',''
  ) );
#428 = PCURVE('',#429,#434);
#429 = PLANE('',#430);
#430 = AXIS2_PLACEMENT_3D('',#431,#432,#433);
#431 = CARTESIAN_POINT('',(0.,0.,-0.1));
#432 = DIRECTION('',(0.,0.,1.));
#433 = DIRECTION('',(1.,0.,-0.));
#434 = DEFINITIONAL_REPRESENTATION('',(#435),#438);
#435 = B_SPLINE_CURVE_WITH_KNOTS('',1,(#436,#437),.UNSPECIFIED.,.F.,.F.,
  (2,2),(-30.,-11.27075726748),.PIECEWISE_BEZIER_KNOTS.);
#436 = CARTESIAN_POINT('',(1.554312234475E-15,2.442490654175E-15));
#437 = CARTESIAN_POINT('',(-16.22,9.364621366256));
#438 = ( GEOMETRIC_REPRESENTATION_CONTEXT(2) 
PARAMETRIC_REPRESENTATION_CONTEXT() REPRESENTATION_CONTEXT('2D SPACE',''
  ) );
#439 = ORIENTED_EDGE('',*,*,#440,.F.);
#440 = EDGE_CURVE('',#441,#415,#443,.T.);
#441 = VERTEX_POINT('',#442);
#442 = CARTESIAN_POINT('',(-13.52731680711,7.81,-0.45));
#443 = SURFACE_CURVE('',#444,(#448,#454),.PCURVE_S1.);
#444 = LINE('',#445,#446);
#445 = CARTESIAN_POINT('',(-13.52731680711,7.81,-0.45));
#446 = VECTOR('',#447,1.);
#447 = DIRECTION('',(0.,0.,1.));
#448 = PCURVE('',#125,#449);
#449 = DEFINITIONAL_REPRESENTATION('',(#450),#453);
#450 = B_SPLINE_CURVE_WITH_KNOTS('',1,(#451,#452),.UNSPECIFIED.,.F.,.F.,
  (2,2),(-6.000000000173E-07,0.3500006),.PIECEWISE_BEZIER_KNOTS.);
#451 = CARTESIAN_POINT('',(44.38,-0.1499994));
#452 = CARTESIAN_POINT('',(44.38,-0.5000006));
#453 = ( GEOMETRIC_REPRESENTATION_CONTEXT(2) 
PARAMETRIC_REPRESENTATION_CONTEXT() REPRESENTATION_CONTEXT('2D SPACE',''
  ) );
#454 = PCURVE('',#455,#460);
#455 = CYLINDRICAL_SURFACE('',#456,15.62);
#456 = AXIS2_PLACEMENT_3D('',#457,#458,#459);
#457 = CARTESIAN_POINT('',(0.,0.,-0.45));
#458 = DIRECTION('',(0.,0.,1.));
#459 = DIRECTION('',(1.,0.,-0.));
#460 = DEFINITIONAL_REPRESENTATION('',(#461),#464);
#461 = B_SPLINE_CURVE_WITH_KNOTS('',1,(#462,#463),.UNSPECIFIED.,.F.,.F.,
  (2,2),(-6.000000000173E-07,0.3500006),.PIECEWISE_BEZIER_KNOTS.);
#462 = CARTESIAN_POINT('',(2.617993877991,-6.000000000173E-07));
#463 = CARTESIAN_POINT('',(2.617993877991,0.3500006));
#464 = ( GEOMETRIC_REPRESENTATION_CONTEXT(2) 
PARAMETRIC_REPRESENTATION_CONTEXT() REPRESENTATION_CONTEXT('2D SPACE',''
  ) );
#465 = ORIENTED_EDGE('',*,*,#466,.T.);
#466 = EDGE_CURVE('',#441,#467,#469,.T.);
#467 = VERTEX_POINT('',#468);
#468 = CARTESIAN_POINT('',(-14.04693204938,8.11,-0.45));
#469 = SURFACE_CURVE('',#470,(#474,#480),.PCURVE_S1.);
#470 = LINE('',#471,#472);
#471 = CARTESIAN_POINT('',(-25.98076211353,15.,-0.45));
#472 = VECTOR('',#473,1.);
#473 = DIRECTION('',(-0.866025403784,0.5,0.));
#474 = PCURVE('',#125,#475);
#475 = DEFINITIONAL_REPRESENTATION('',(#476),#479);
#476 = B_SPLINE_CURVE_WITH_KNOTS('',1,(#477,#478),.UNSPECIFIED.,.F.,.F.,
  (2,2),(-30.,-11.27075726748),.PIECEWISE_BEZIER_KNOTS.);
#477 = CARTESIAN_POINT('',(60.,-0.15));
#478 = CARTESIAN_POINT('',(41.270757267489,-0.15));
#479 = ( GEOMETRIC_REPRESENTATION_CONTEXT(2) 
PARAMETRIC_REPRESENTATION_CONTEXT() REPRESENTATION_CONTEXT('2D SPACE',''
  ) );
#480 = PCURVE('',#481,#486);
#481 = PLANE('',#482);
#482 = AXIS2_PLACEMENT_3D('',#483,#484,#485);
#483 = CARTESIAN_POINT('',(0.,0.,-0.45));
#484 = DIRECTION('',(0.,0.,1.));
#485 = DIRECTION('',(1.,0.,-0.));
#486 = DEFINITIONAL_REPRESENTATION('',(#487),#490);
#487 = B_SPLINE_CURVE_WITH_KNOTS('',1,(#488,#489),.UNSPECIFIED.,.F.,.F.,
  (2,2),(-30.,-11.27075726748),.PIECEWISE_BEZIER_KNOTS.);
#488 = CARTESIAN_POINT('',(1.554312234475E-15,2.442490654175E-15));
#489 = CARTESIAN_POINT('',(-16.22,9.364621366256));
#490 = ( GEOMETRIC_REPRESENTATION_CONTEXT(2) 
PARAMETRIC_REPRESENTATION_CONTEXT() REPRESENTATION_CONTEXT('2D SPACE',''
  ) );
#491 = ORIENTED_EDGE('',*,*,#492,.F.);
#492 = EDGE_CURVE('',#213,#467,#493,.T.);
#493 = SURFACE_CURVE('',#494,(#498,#504),.PCURVE_S1.);
#494 = LINE('',#495,#496);
#495 = CARTESIAN_POINT('',(-14.04693204938,8.11,-0.6));
#496 = VECTOR('',#497,1.);
#497 = DIRECTION('',(0.,0.,1.));
#498 = PCURVE('',#125,#499);
#499 = DEFINITIONAL_REPRESENTATION('',(#500),#503);
#500 = B_SPLINE_CURVE_WITH_KNOTS('',1,(#501,#502),.UNSPECIFIED.,.F.,.F.,
  (2,2),(-6.000000000173E-07,0.1500006),.PIECEWISE_BEZIER_KNOTS.);
#501 = CARTESIAN_POINT('',(43.78,6.000000000173E-07));
#502 = CARTESIAN_POINT('',(43.78,-0.1500006));
#503 = ( GEOMETRIC_REPRESENTATION_CONTEXT(2) 
PARAMETRIC_REPRESENTATION_CONTEXT() REPRESENTATION_CONTEXT('2D SPACE',''
  ) );
#504 = PCURVE('',#505,#510);
#505 = CYLINDRICAL_SURFACE('',#506,16.22);
#506 = AXIS2_PLACEMENT_3D('',#507,#508,#509);
#507 = CARTESIAN_POINT('',(0.,0.,-0.6));
#508 = DIRECTION('',(0.,0.,1.));
#509 = DIRECTION('',(1.,0.,-0.));
#510 = DEFINITIONAL_REPRESENTATION('',(#511),#514);
#511 = B_SPLINE_CURVE_WITH_KNOTS('',1,(#512,#513),.UNSPECIFIED.,.F.,.F.,
  (2,2),(-6.000000000173E-07,0.1500006),.PIECEWISE_BEZIER_KNOTS.);
#512 = CARTESIAN_POINT('',(2.617993877991,-6.000000000173E-07));
#513 = CARTESIAN_POINT('',(2.617993877991,0.1500006));
#514 = ( GEOMETRIC_REPRESENTATION_CONTEXT(2) 
PARAMETRIC_REPRESENTATION_CONTEXT() REPRESENTATION_CONTEXT('2D SPACE',''
  ) );
#515 = ADVANCED_FACE('',(#516),#100,.F.);
#516 = FACE_BOUND('',#517,.F.);
#517 = EDGE_LOOP('',(#518,#541,#542,#543));
#518 = ORIENTED_EDGE('',*,*,#519,.T.);
#519 = EDGE_CURVE('',#520,#58,#522,.T.);
#520 = VERTEX_POINT('',#521);
#521 = CARTESIAN_POINT('',(14.046932049384,8.11,-0.6));
#522 = SURFACE_CURVE('',#523,(#527,#534),.PCURVE_S1.);
#523 = LINE('',#524,#525);
#524 = CARTESIAN_POINT('',(0.,0.,-0.6));
#525 = VECTOR('',#526,1.);
#526 = DIRECTION('',(0.866025403784,0.5,0.));
#527 = PCURVE('',#100,#528);
#528 = DEFINITIONAL_REPRESENTATION('',(#529),#533);
#529 = LINE('',#530,#531);
#530 = CARTESIAN_POINT('',(0.,0.));
#531 = VECTOR('',#532,1.);
#532 = DIRECTION('',(0.866025403784,0.5));
#533 = ( GEOMETRIC_REPRESENTATION_CONTEXT(2) 
PARAMETRIC_REPRESENTATION_CONTEXT() REPRESENTATION_CONTEXT('2D SPACE',''
  ) );
#534 = PCURVE('',#72,#535);
#535 = DEFINITIONAL_REPRESENTATION('',(#536),#540);
#536 = LINE('',#537,#538);
#537 = CARTESIAN_POINT('',(0.,0.));
#538 = VECTOR('',#539,1.);
#539 = DIRECTION('',(1.,0.));
#540 = ( GEOMETRIC_REPRESENTATION_CONTEXT(2) 
PARAMETRIC_REPRESENTATION_CONTEXT() REPRESENTATION_CONTEXT('2D SPACE',''
  ) );
#541 = ORIENTED_EDGE('',*,*,#83,.T.);
#542 = ORIENTED_EDGE('',*,*,#212,.T.);
#543 = ORIENTED_EDGE('',*,*,#544,.F.);
#544 = EDGE_CURVE('',#520,#213,#545,.T.);
#545 = SURFACE_CURVE('',#546,(#551,#558),.PCURVE_S1.);
#546 = CIRCLE('',#547,16.22);
#547 = AXIS2_PLACEMENT_3D('',#548,#549,#550);
#548 = CARTESIAN_POINT('',(0.,0.,-0.6));
#549 = DIRECTION('',(0.,0.,1.));
#550 = DIRECTION('',(1.,0.,-0.));
#551 = PCURVE('',#100,#552);
#552 = DEFINITIONAL_REPRESENTATION('',(#553),#557);
#553 = CIRCLE('',#554,16.22);
#554 = AXIS2_PLACEMENT_2D('',#555,#556);
#555 = CARTESIAN_POINT('',(0.,0.));
#556 = DIRECTION('',(1.,0.));
#557 = ( GEOMETRIC_REPRESENTATION_CONTEXT(2) 
PARAMETRIC_REPRESENTATION_CONTEXT() REPRESENTATION_CONTEXT('2D SPACE',''
  ) );
#558 = PCURVE('',#505,#559);
#559 = DEFINITIONAL_REPRESENTATION('',(#560),#564);
#560 = LINE('',#561,#562);
#561 = CARTESIAN_POINT('',(0.,0.));
#562 = VECTOR('',#563,1.);
#563 = DIRECTION('',(1.,0.));
#564 = ( GEOMETRIC_REPRESENTATION_CONTEXT(2) 
PARAMETRIC_REPRESENTATION_CONTEXT() REPRESENTATION_CONTEXT('2D SPACE',''
  ) );
#565 = ADVANCED_FACE('',(#566),#72,.F.);
#566 = FACE_BOUND('',#567,.F.);
#567 = EDGE_LOOP('',(#568,#569,#590,#611,#632,#653,#674,#695,#716,#737,
    #758,#779,#798,#799));
#568 = ORIENTED_EDGE('',*,*,#519,.F.);
#569 = ORIENTED_EDGE('',*,*,#570,.T.);
#570 = EDGE_CURVE('',#520,#571,#573,.T.);
#571 = VERTEX_POINT('',#572);
#572 = CARTESIAN_POINT('',(14.046932049384,8.11,-0.45));
#573 = SURFACE_CURVE('',#574,(#578,#584),.PCURVE_S1.);
#574 = LINE('',#575,#576);
#575 = CARTESIAN_POINT('',(14.046932049384,8.11,-0.6));
#576 = VECTOR('',#577,1.);
#577 = DIRECTION('',(0.,0.,1.));
#578 = PCURVE('',#72,#579);
#579 = DEFINITIONAL_REPRESENTATION('',(#580),#583);
#580 = B_SPLINE_CURVE_WITH_KNOTS('',1,(#581,#582),.UNSPECIFIED.,.F.,.F.,
  (2,2),(-6.000000000173E-07,0.1500006),.PIECEWISE_BEZIER_KNOTS.);
#581 = CARTESIAN_POINT('',(16.22,6.000000000173E-07));
#582 = CARTESIAN_POINT('',(16.22,-0.1500006));
#583 = ( GEOMETRIC_REPRESENTATION_CONTEXT(2) 
PARAMETRIC_REPRESENTATION_CONTEXT() REPRESENTATION_CONTEXT('2D SPACE',''
  ) );
#584 = PCURVE('',#505,#585);
#585 = DEFINITIONAL_REPRESENTATION('',(#586),#589);
#586 = B_SPLINE_CURVE_WITH_KNOTS('',1,(#587,#588),.UNSPECIFIED.,.F.,.F.,
  (2,2),(-6.000000000173E-07,0.1500006),.PIECEWISE_BEZIER_KNOTS.);
#587 = CARTESIAN_POINT('',(0.523598775598,-6.000000000173E-07));
#588 = CARTESIAN_POINT('',(0.523598775598,0.1500006));
#589 = ( GEOMETRIC_REPRESENTATION_CONTEXT(2) 
PARAMETRIC_REPRESENTATION_CONTEXT() REPRESENTATION_CONTEXT('2D SPACE',''
  ) );
#590 = ORIENTED_EDGE('',*,*,#591,.T.);
#591 = EDGE_CURVE('',#571,#592,#594,.T.);
#592 = VERTEX_POINT('',#593);
#593 = CARTESIAN_POINT('',(13.527316807113,7.81,-0.45));
#594 = SURFACE_CURVE('',#595,(#599,#605),.PCURVE_S1.);
#595 = LINE('',#596,#597);
#596 = CARTESIAN_POINT('',(0.,0.,-0.45));
#597 = VECTOR('',#598,1.);
#598 = DIRECTION('',(-0.866025403784,-0.5,0.));
#599 = PCURVE('',#72,#600);
#600 = DEFINITIONAL_REPRESENTATION('',(#601),#604);
#601 = B_SPLINE_CURVE_WITH_KNOTS('',1,(#602,#603),.UNSPECIFIED.,.F.,.F.,
  (2,2),(-18.72924273251,-0.),.PIECEWISE_BEZIER_KNOTS.);
#602 = CARTESIAN_POINT('',(18.729242732511,-0.15));
#603 = CARTESIAN_POINT('',(0.,-0.15));
#604 = ( GEOMETRIC_REPRESENTATION_CONTEXT(2) 
PARAMETRIC_REPRESENTATION_CONTEXT() REPRESENTATION_CONTEXT('2D SPACE',''
  ) );
#605 = PCURVE('',#481,#606);
#606 = DEFINITIONAL_REPRESENTATION('',(#607),#610);
#607 = B_SPLINE_CURVE_WITH_KNOTS('',1,(#608,#609),.UNSPECIFIED.,.F.,.F.,
  (2,2),(-18.72924273251,-0.),.PIECEWISE_BEZIER_KNOTS.);
#608 = CARTESIAN_POINT('',(16.22,9.364621366256));
#609 = CARTESIAN_POINT('',(0.,0.));
#610 = ( GEOMETRIC_REPRESENTATION_CONTEXT(2) 
PARAMETRIC_REPRESENTATION_CONTEXT() REPRESENTATION_CONTEXT('2D SPACE',''
  ) );
#611 = ORIENTED_EDGE('',*,*,#612,.T.);
#612 = EDGE_CURVE('',#592,#613,#615,.T.);
#613 = VERTEX_POINT('',#614);
#614 = CARTESIAN_POINT('',(13.527316807113,7.81,-0.1));
#615 = SURFACE_CURVE('',#616,(#620,#626),.PCURVE_S1.);
#616 = LINE('',#617,#618);
#617 = CARTESIAN_POINT('',(13.527316807113,7.81,-0.45));
#618 = VECTOR('',#619,1.);
#619 = DIRECTION('',(0.,0.,1.));
#620 = PCURVE('',#72,#621);
#621 = DEFINITIONAL_REPRESENTATION('',(#622),#625);
#622 = B_SPLINE_CURVE_WITH_KNOTS('',1,(#623,#624),.UNSPECIFIED.,.F.,.F.,
  (2,2),(-6.000000000173E-07,0.3500006),.PIECEWISE_BEZIER_KNOTS.);
#623 = CARTESIAN_POINT('',(15.62,-0.1499994));
#624 = CARTESIAN_POINT('',(15.62,-0.5000006));
#625 = ( GEOMETRIC_REPRESENTATION_CONTEXT(2) 
PARAMETRIC_REPRESENTATION_CONTEXT() REPRESENTATION_CONTEXT('2D SPACE',''
  ) );
#626 = PCURVE('',#455,#627);
#627 = DEFINITIONAL_REPRESENTATION('',(#628),#631);
#628 = B_SPLINE_CURVE_WITH_KNOTS('',1,(#629,#630),.UNSPECIFIED.,.F.,.F.,
  (2,2),(-6.000000000173E-07,0.3500006),.PIECEWISE_BEZIER_KNOTS.);
#629 = CARTESIAN_POINT('',(0.523598775598,-6.000000000173E-07));
#630 = CARTESIAN_POINT('',(0.523598775598,0.3500006));
#631 = ( GEOMETRIC_REPRESENTATION_CONTEXT(2) 
PARAMETRIC_REPRESENTATION_CONTEXT() REPRESENTATION_CONTEXT('2D SPACE',''
  ) );
#632 = ORIENTED_EDGE('',*,*,#633,.F.);
#633 = EDGE_CURVE('',#634,#613,#636,.T.);
#634 = VERTEX_POINT('',#635);
#635 = CARTESIAN_POINT('',(14.046932049384,8.11,-0.1));
#636 = SURFACE_CURVE('',#637,(#641,#647),.PCURVE_S1.);
#637 = LINE('',#638,#639);
#638 = CARTESIAN_POINT('',(0.,0.,-1.E-01));
#639 = VECTOR('',#640,1.);
#640 = DIRECTION('',(-0.866025403784,-0.5,0.));
#641 = PCURVE('',#72,#642);
#642 = DEFINITIONAL_REPRESENTATION('',(#643),#646);
#643 = B_SPLINE_CURVE_WITH_KNOTS('',1,(#644,#645),.UNSPECIFIED.,.F.,.F.,
  (2,2),(-18.72924273251,-0.),.PIECEWISE_BEZIER_KNOTS.);
#644 = CARTESIAN_POINT('',(18.729242732511,-0.5));
#645 = CARTESIAN_POINT('',(0.,-0.5));
#646 = ( GEOMETRIC_REPRESENTATION_CONTEXT(2) 
PARAMETRIC_REPRESENTATION_CONTEXT() REPRESENTATION_CONTEXT('2D SPACE',''
  ) );
#647 = PCURVE('',#429,#648);
#648 = DEFINITIONAL_REPRESENTATION('',(#649),#652);
#649 = B_SPLINE_CURVE_WITH_KNOTS('',1,(#650,#651),.UNSPECIFIED.,.F.,.F.,
  (2,2),(-18.72924273251,-0.),.PIECEWISE_BEZIER_KNOTS.);
#650 = CARTESIAN_POINT('',(16.22,9.364621366256));
#651 = CARTESIAN_POINT('',(0.,0.));
#652 = ( GEOMETRIC_REPRESENTATION_CONTEXT(2) 
PARAMETRIC_REPRESENTATION_CONTEXT() REPRESENTATION_CONTEXT('2D SPACE',''
  ) );
#653 = ORIENTED_EDGE('',*,*,#654,.T.);
#654 = EDGE_CURVE('',#634,#655,#657,.T.);
#655 = VERTEX_POINT('',#656);
#656 = CARTESIAN_POINT('',(14.046932049384,8.11,7.85));
#657 = SURFACE_CURVE('',#658,(#662,#668),.PCURVE_S1.);
#658 = LINE('',#659,#660);
#659 = CARTESIAN_POINT('',(14.046932049384,8.11,-0.6));
#660 = VECTOR('',#661,1.);
#661 = DIRECTION('',(0.,0.,1.));
#662 = PCURVE('',#72,#663);
#663 = DEFINITIONAL_REPRESENTATION('',(#664),#667);
#664 = B_SPLINE_CURVE_WITH_KNOTS('',1,(#665,#666),.UNSPECIFIED.,.F.,.F.,
  (2,2),(0.4999994,8.4500006),.PIECEWISE_BEZIER_KNOTS.);
#665 = CARTESIAN_POINT('',(16.22,-0.4999994));
#666 = CARTESIAN_POINT('',(16.22,-8.4500006));
#667 = ( GEOMETRIC_REPRESENTATION_CONTEXT(2) 
PARAMETRIC_REPRESENTATION_CONTEXT() REPRESENTATION_CONTEXT('2D SPACE',''
  ) );
#668 = PCURVE('',#403,#669);
#669 = DEFINITIONAL_REPRESENTATION('',(#670),#673);
#670 = B_SPLINE_CURVE_WITH_KNOTS('',1,(#671,#672),.UNSPECIFIED.,.F.,.F.,
  (2,2),(0.4999994,8.4500006),.PIECEWISE_BEZIER_KNOTS.);
#671 = CARTESIAN_POINT('',(0.523598775598,0.4999994));
#672 = CARTESIAN_POINT('',(0.523598775598,8.4500006));
#673 = ( GEOMETRIC_REPRESENTATION_CONTEXT(2) 
PARAMETRIC_REPRESENTATION_CONTEXT() REPRESENTATION_CONTEXT('2D SPACE',''
  ) );
#674 = ORIENTED_EDGE('',*,*,#675,.T.);
#675 = EDGE_CURVE('',#655,#676,#678,.T.);
#676 = VERTEX_POINT('',#677);
#677 = CARTESIAN_POINT('',(13.466695028848,7.775,7.85));
#678 = SURFACE_CURVE('',#679,(#683,#689),.PCURVE_S1.);
#679 = LINE('',#680,#681);
#680 = CARTESIAN_POINT('',(0.,0.,7.85));
#681 = VECTOR('',#682,1.);
#682 = DIRECTION('',(-0.866025403784,-0.5,0.));
#683 = PCURVE('',#72,#684);
#684 = DEFINITIONAL_REPRESENTATION('',(#685),#688);
#685 = B_SPLINE_CURVE_WITH_KNOTS('',1,(#686,#687),.UNSPECIFIED.,.F.,.F.,
  (2,2),(-18.72924273251,-0.),.PIECEWISE_BEZIER_KNOTS.);
#686 = CARTESIAN_POINT('',(18.729242732511,-8.45));
#687 = CARTESIAN_POINT('',(0.,-8.45));
#688 = ( GEOMETRIC_REPRESENTATION_CONTEXT(2) 
PARAMETRIC_REPRESENTATION_CONTEXT() REPRESENTATION_CONTEXT('2D SPACE',''
  ) );
#689 = PCURVE('',#377,#690);
#690 = DEFINITIONAL_REPRESENTATION('',(#691),#694);
#691 = B_SPLINE_CURVE_WITH_KNOTS('',1,(#692,#693),.UNSPECIFIED.,.F.,.F.,
  (2,2),(-18.72924273251,-0.),.PIECEWISE_BEZIER_KNOTS.);
#692 = CARTESIAN_POINT('',(16.22,9.364621366256));
#693 = CARTESIAN_POINT('',(0.,0.));
#694 = ( GEOMETRIC_REPRESENTATION_CONTEXT(2) 
PARAMETRIC_REPRESENTATION_CONTEXT() REPRESENTATION_CONTEXT('2D SPACE',''
  ) );
#695 = ORIENTED_EDGE('',*,*,#696,.T.);
#696 = EDGE_CURVE('',#676,#697,#699,.T.);
#697 = VERTEX_POINT('',#698);
#698 = CARTESIAN_POINT('',(13.466695028848,7.775,9.05));
#699 = SURFACE_CURVE('',#700,(#704,#710),.PCURVE_S1.);
#700 = LINE('',#701,#702);
#701 = CARTESIAN_POINT('',(13.466695028848,7.775,7.85));
#702 = VECTOR('',#703,1.);
#703 = DIRECTION('',(0.,0.,1.));
#704 = PCURVE('',#72,#705);
#705 = DEFINITIONAL_REPRESENTATION('',(#706),#709);
#706 = B_SPLINE_CURVE_WITH_KNOTS('',1,(#707,#708),.UNSPECIFIED.,.F.,.F.,
  (2,2),(-5.999999999062E-07,1.2000006),.PIECEWISE_BEZIER_KNOTS.);
#707 = CARTESIAN_POINT('',(15.55,-8.4499994));
#708 = CARTESIAN_POINT('',(15.55,-9.6500006));
#709 = ( GEOMETRIC_REPRESENTATION_CONTEXT(2) 
PARAMETRIC_REPRESENTATION_CONTEXT() REPRESENTATION_CONTEXT('2D SPACE',''
  ) );
#710 = PCURVE('',#351,#711);
#711 = DEFINITIONAL_REPRESENTATION('',(#712),#715);
#712 = B_SPLINE_CURVE_WITH_KNOTS('',1,(#713,#714),.UNSPECIFIED.,.F.,.F.,
  (2,2),(-5.999999999062E-07,1.2000006),.PIECEWISE_BEZIER_KNOTS.);
#713 = CARTESIAN_POINT('',(0.523598775598,-5.999999999062E-07));
#714 = CARTESIAN_POINT('',(0.523598775598,1.2000006));
#715 = ( GEOMETRIC_REPRESENTATION_CONTEXT(2) 
PARAMETRIC_REPRESENTATION_CONTEXT() REPRESENTATION_CONTEXT('2D SPACE',''
  ) );
#716 = ORIENTED_EDGE('',*,*,#717,.F.);
#717 = EDGE_CURVE('',#718,#697,#720,.T.);
#718 = VERTEX_POINT('',#719);
#719 = CARTESIAN_POINT('',(14.029611541308,8.1,9.05));
#720 = SURFACE_CURVE('',#721,(#725,#731),.PCURVE_S1.);
#721 = LINE('',#722,#723);
#722 = CARTESIAN_POINT('',(0.,0.,9.05));
#723 = VECTOR('',#724,1.);
#724 = DIRECTION('',(-0.866025403784,-0.5,0.));
#725 = PCURVE('',#72,#726);
#726 = DEFINITIONAL_REPRESENTATION('',(#727),#730);
#727 = B_SPLINE_CURVE_WITH_KNOTS('',1,(#728,#729),.UNSPECIFIED.,.F.,.F.,
  (2,2),(-18.70614872174,-0.),.PIECEWISE_BEZIER_KNOTS.);
#728 = CARTESIAN_POINT('',(18.706148721744,-9.65));
#729 = CARTESIAN_POINT('',(0.,-9.65));
#730 = ( GEOMETRIC_REPRESENTATION_CONTEXT(2) 
PARAMETRIC_REPRESENTATION_CONTEXT() REPRESENTATION_CONTEXT('2D SPACE',''
  ) );
#731 = PCURVE('',#325,#732);
#732 = DEFINITIONAL_REPRESENTATION('',(#733),#736);
#733 = B_SPLINE_CURVE_WITH_KNOTS('',1,(#734,#735),.UNSPECIFIED.,.F.,.F.,
  (2,2),(-18.70614872174,-0.),.PIECEWISE_BEZIER_KNOTS.);
#734 = CARTESIAN_POINT('',(16.2,9.353074360872));
#735 = CARTESIAN_POINT('',(0.,0.));
#736 = ( GEOMETRIC_REPRESENTATION_CONTEXT(2) 
PARAMETRIC_REPRESENTATION_CONTEXT() REPRESENTATION_CONTEXT('2D SPACE',''
  ) );
#737 = ORIENTED_EDGE('',*,*,#738,.T.);
#738 = EDGE_CURVE('',#718,#739,#741,.T.);
#739 = VERTEX_POINT('',#740);
#740 = CARTESIAN_POINT('',(14.029611541308,8.1,10.65));
#741 = SURFACE_CURVE('',#742,(#746,#752),.PCURVE_S1.);
#742 = LINE('',#743,#744);
#743 = CARTESIAN_POINT('',(14.029611541308,8.1,9.05));
#744 = VECTOR('',#745,1.);
#745 = DIRECTION('',(0.,0.,1.));
#746 = PCURVE('',#72,#747);
#747 = DEFINITIONAL_REPRESENTATION('',(#748),#751);
#748 = B_SPLINE_CURVE_WITH_KNOTS('',1,(#749,#750),.UNSPECIFIED.,.F.,.F.,
  (2,2),(-5.999999999062E-07,1.6000006),.PIECEWISE_BEZIER_KNOTS.);
#749 = CARTESIAN_POINT('',(16.2,-9.6499994));
#750 = CARTESIAN_POINT('',(16.2,-11.2500006));
#751 = ( GEOMETRIC_REPRESENTATION_CONTEXT(2) 
PARAMETRIC_REPRESENTATION_CONTEXT() REPRESENTATION_CONTEXT('2D SPACE',''
  ) );
#752 = PCURVE('',#299,#753);
#753 = DEFINITIONAL_REPRESENTATION('',(#754),#757);
#754 = B_SPLINE_CURVE_WITH_KNOTS('',1,(#755,#756),.UNSPECIFIED.,.F.,.F.,
  (2,2),(-5.999999999062E-07,1.6000006),.PIECEWISE_BEZIER_KNOTS.);
#755 = CARTESIAN_POINT('',(0.523598775598,-5.999999999062E-07));
#756 = CARTESIAN_POINT('',(0.523598775598,1.6000006));
#757 = ( GEOMETRIC_REPRESENTATION_CONTEXT(2) 
PARAMETRIC_REPRESENTATION_CONTEXT() REPRESENTATION_CONTEXT('2D SPACE',''
  ) );
#758 = ORIENTED_EDGE('',*,*,#759,.F.);
#759 = EDGE_CURVE('',#760,#739,#762,.T.);
#760 = VERTEX_POINT('',#761);
#761 = CARTESIAN_POINT('',(15.415252187363,8.9,10.65));
#762 = SURFACE_CURVE('',#763,(#767,#773),.PCURVE_S1.);
#763 = LINE('',#764,#765);
#764 = CARTESIAN_POINT('',(0.,0.,10.65));
#765 = VECTOR('',#766,1.);
#766 = DIRECTION('',(-0.866025403784,-0.5,0.));
#767 = PCURVE('',#72,#768);
#768 = DEFINITIONAL_REPRESENTATION('',(#769),#772);
#769 = B_SPLINE_CURVE_WITH_KNOTS('',1,(#770,#771),.UNSPECIFIED.,.F.,.F.,
  (2,2),(-20.55366958315,-0.),.PIECEWISE_BEZIER_KNOTS.);
#770 = CARTESIAN_POINT('',(20.553669583151,-11.25));
#771 = CARTESIAN_POINT('',(0.,-11.25));
#772 = ( GEOMETRIC_REPRESENTATION_CONTEXT(2) 
PARAMETRIC_REPRESENTATION_CONTEXT() REPRESENTATION_CONTEXT('2D SPACE',''
  ) );
#773 = PCURVE('',#273,#774);
#774 = DEFINITIONAL_REPRESENTATION('',(#775),#778);
#775 = B_SPLINE_CURVE_WITH_KNOTS('',1,(#776,#777),.UNSPECIFIED.,.F.,.F.,
  (2,2),(-20.55366958315,-0.),.PIECEWISE_BEZIER_KNOTS.);
#776 = CARTESIAN_POINT('',(17.8,10.276834791575));
#777 = CARTESIAN_POINT('',(0.,0.));
#778 = ( GEOMETRIC_REPRESENTATION_CONTEXT(2) 
PARAMETRIC_REPRESENTATION_CONTEXT() REPRESENTATION_CONTEXT('2D SPACE',''
  ) );
#779 = ORIENTED_EDGE('',*,*,#780,.F.);
#780 = EDGE_CURVE('',#140,#760,#781,.T.);
#781 = SURFACE_CURVE('',#782,(#786,#792),.PCURVE_S1.);
#782 = LINE('',#783,#784);
#783 = CARTESIAN_POINT('',(15.415252187363,8.9,9.05));
#784 = VECTOR('',#785,1.);
#785 = DIRECTION('',(0.,0.,1.));
#786 = PCURVE('',#72,#787);
#787 = DEFINITIONAL_REPRESENTATION('',(#788),#791);
#788 = B_SPLINE_CURVE_WITH_KNOTS('',1,(#789,#790),.UNSPECIFIED.,.F.,.F.,
  (2,2),(-5.999999999062E-07,1.6000006),.PIECEWISE_BEZIER_KNOTS.);
#789 = CARTESIAN_POINT('',(17.8,-9.6499994));
#790 = CARTESIAN_POINT('',(17.8,-11.2500006));
#791 = ( GEOMETRIC_REPRESENTATION_CONTEXT(2) 
PARAMETRIC_REPRESENTATION_CONTEXT() REPRESENTATION_CONTEXT('2D SPACE',''
  ) );
#792 = PCURVE('',#177,#793);
#793 = DEFINITIONAL_REPRESENTATION('',(#794),#797);
#794 = B_SPLINE_CURVE_WITH_KNOTS('',1,(#795,#796),.UNSPECIFIED.,.F.,.F.,
  (2,2),(-5.999999999062E-07,1.6000006),.PIECEWISE_BEZIER_KNOTS.);
#795 = CARTESIAN_POINT('',(0.523598775598,-5.999999999062E-07));
#796 = CARTESIAN_POINT('',(0.523598775598,1.6000006));
#797 = ( GEOMETRIC_REPRESENTATION_CONTEXT(2) 
PARAMETRIC_REPRESENTATION_CONTEXT() REPRESENTATION_CONTEXT('2D SPACE',''
  ) );
#798 = ORIENTED_EDGE('',*,*,#139,.T.);
#799 = ORIENTED_EDGE('',*,*,#57,.F.);
#800 = ADVANCED_FACE('',(#801),#177,.T.);
#801 = FACE_BOUND('',#802,.T.);
#802 = EDGE_LOOP('',(#803,#825,#826,#827));
#803 = ORIENTED_EDGE('',*,*,#804,.F.);
#804 = EDGE_CURVE('',#760,#238,#805,.T.);
#805 = SURFACE_CURVE('',#806,(#811,#818),.PCURVE_S1.);
#806 = CIRCLE('',#807,17.8);
#807 = AXIS2_PLACEMENT_3D('',#808,#809,#810);
#808 = CARTESIAN_POINT('',(0.,0.,10.65));
#809 = DIRECTION('',(0.,0.,1.));
#810 = DIRECTION('',(1.,0.,-0.));
#811 = PCURVE('',#177,#812);
#812 = DEFINITIONAL_REPRESENTATION('',(#813),#817);
#813 = LINE('',#814,#815);
#814 = CARTESIAN_POINT('',(0.,1.6));
#815 = VECTOR('',#816,1.);
#816 = DIRECTION('',(1.,0.));
#817 = ( GEOMETRIC_REPRESENTATION_CONTEXT(2) 
PARAMETRIC_REPRESENTATION_CONTEXT() REPRESENTATION_CONTEXT('2D SPACE',''
  ) );
#818 = PCURVE('',#273,#819);
#819 = DEFINITIONAL_REPRESENTATION('',(#820),#824);
#820 = CIRCLE('',#821,17.8);
#821 = AXIS2_PLACEMENT_2D('',#822,#823);
#822 = CARTESIAN_POINT('',(0.,0.));
#823 = DIRECTION('',(1.,0.));
#824 = ( GEOMETRIC_REPRESENTATION_CONTEXT(2) 
PARAMETRIC_REPRESENTATION_CONTEXT() REPRESENTATION_CONTEXT('2D SPACE',''
  ) );
#825 = ORIENTED_EDGE('',*,*,#780,.F.);
#826 = ORIENTED_EDGE('',*,*,#160,.T.);
#827 = ORIENTED_EDGE('',*,*,#237,.T.);
#828 = ADVANCED_FACE('',(#829),#505,.F.);
#829 = FACE_BOUND('',#830,.F.);
#830 = EDGE_LOOP('',(#831,#853,#854,#855));
#831 = ORIENTED_EDGE('',*,*,#832,.F.);
#832 = EDGE_CURVE('',#571,#467,#833,.T.);
#833 = SURFACE_CURVE('',#834,(#839,#846),.PCURVE_S1.);
#834 = CIRCLE('',#835,16.22);
#835 = AXIS2_PLACEMENT_3D('',#836,#837,#838);
#836 = CARTESIAN_POINT('',(0.,0.,-0.45));
#837 = DIRECTION('',(0.,0.,1.));
#838 = DIRECTION('',(1.,0.,-0.));
#839 = PCURVE('',#505,#840);
#840 = DEFINITIONAL_REPRESENTATION('',(#841),#845);
#841 = LINE('',#842,#843);
#842 = CARTESIAN_POINT('',(0.,0.15));
#843 = VECTOR('',#844,1.);
#844 = DIRECTION('',(1.,0.));
#845 = ( GEOMETRIC_REPRESENTATION_CONTEXT(2) 
PARAMETRIC_REPRESENTATION_CONTEXT() REPRESENTATION_CONTEXT('2D SPACE',''
  ) );
#846 = PCURVE('',#481,#847);
#847 = DEFINITIONAL_REPRESENTATION('',(#848),#852);
#848 = CIRCLE('',#849,16.22);
#849 = AXIS2_PLACEMENT_2D('',#850,#851);
#850 = CARTESIAN_POINT('',(0.,0.));
#851 = DIRECTION('',(1.,0.));
#852 = ( GEOMETRIC_REPRESENTATION_CONTEXT(2) 
PARAMETRIC_REPRESENTATION_CONTEXT() REPRESENTATION_CONTEXT('2D SPACE',''
  ) );
#853 = ORIENTED_EDGE('',*,*,#570,.F.);
#854 = ORIENTED_EDGE('',*,*,#544,.T.);
#855 = ORIENTED_EDGE('',*,*,#492,.T.);
#856 = ADVANCED_FACE('',(#857),#481,.F.);
#857 = FACE_BOUND('',#858,.F.);
#858 = EDGE_LOOP('',(#859,#860,#861,#862));
#859 = ORIENTED_EDGE('',*,*,#591,.F.);
#860 = ORIENTED_EDGE('',*,*,#832,.T.);
#861 = ORIENTED_EDGE('',*,*,#466,.F.);
#862 = ORIENTED_EDGE('',*,*,#863,.F.);
#863 = EDGE_CURVE('',#592,#441,#864,.T.);
#864 = SURFACE_CURVE('',#865,(#870,#877),.PCURVE_S1.);
#865 = CIRCLE('',#866,15.62);
#866 = AXIS2_PLACEMENT_3D('',#867,#868,#869);
#867 = CARTESIAN_POINT('',(0.,0.,-0.45));
#868 = DIRECTION('',(0.,0.,1.));
#869 = DIRECTION('',(1.,0.,-0.));
#870 = PCURVE('',#481,#871);
#871 = DEFINITIONAL_REPRESENTATION('',(#872),#876);
#872 = CIRCLE('',#873,15.62);
#873 = AXIS2_PLACEMENT_2D('',#874,#875);
#874 = CARTESIAN_POINT('',(0.,0.));
#875 = DIRECTION('',(1.,0.));
#876 = ( GEOMETRIC_REPRESENTATION_CONTEXT(2) 
PARAMETRIC_REPRESENTATION_CONTEXT() REPRESENTATION_CONTEXT('2D SPACE',''
  ) );
#877 = PCURVE('',#455,#878);
#878 = DEFINITIONAL_REPRESENTATION('',(#879),#883);
#879 = LINE('',#880,#881);
#880 = CARTESIAN_POINT('',(0.,0.));
#881 = VECTOR('',#882,1.);
#882 = DIRECTION('',(1.,0.));
#883 = ( GEOMETRIC_REPRESENTATION_CONTEXT(2) 
PARAMETRIC_REPRESENTATION_CONTEXT() REPRESENTATION_CONTEXT('2D SPACE',''
  ) );
#884 = ADVANCED_FACE('',(#885),#455,.F.);
#885 = FACE_BOUND('',#886,.F.);
#886 = EDGE_LOOP('',(#887,#909,#910,#911));
#887 = ORIENTED_EDGE('',*,*,#888,.F.);
#888 = EDGE_CURVE('',#613,#415,#889,.T.);
#889 = SURFACE_CURVE('',#890,(#895,#902),.PCURVE_S1.);
#890 = CIRCLE('',#891,15.62);
#891 = AXIS2_PLACEMENT_3D('',#892,#893,#894);
#892 = CARTESIAN_POINT('',(0.,0.,-0.1));
#893 = DIRECTION('',(0.,0.,1.));
#894 = DIRECTION('',(1.,0.,-0.));
#895 = PCURVE('',#455,#896);
#896 = DEFINITIONAL_REPRESENTATION('',(#897),#901);
#897 = LINE('',#898,#899);
#898 = CARTESIAN_POINT('',(0.,0.35));
#899 = VECTOR('',#900,1.);
#900 = DIRECTION('',(1.,0.));
#901 = ( GEOMETRIC_REPRESENTATION_CONTEXT(2) 
PARAMETRIC_REPRESENTATION_CONTEXT() REPRESENTATION_CONTEXT('2D SPACE',''
  ) );
#902 = PCURVE('',#429,#903);
#903 = DEFINITIONAL_REPRESENTATION('',(#904),#908);
#904 = CIRCLE('',#905,15.62);
#905 = AXIS2_PLACEMENT_2D('',#906,#907);
#906 = CARTESIAN_POINT('',(0.,0.));
#907 = DIRECTION('',(1.,0.));
#908 = ( GEOMETRIC_REPRESENTATION_CONTEXT(2) 
PARAMETRIC_REPRESENTATION_CONTEXT() REPRESENTATION_CONTEXT('2D SPACE',''
  ) );
#909 = ORIENTED_EDGE('',*,*,#612,.F.);
#910 = ORIENTED_EDGE('',*,*,#863,.T.);
#911 = ORIENTED_EDGE('',*,*,#440,.T.);
#912 = ADVANCED_FACE('',(#913),#429,.T.);
#913 = FACE_BOUND('',#914,.T.);
#914 = EDGE_LOOP('',(#915,#916,#938,#939));
#915 = ORIENTED_EDGE('',*,*,#633,.F.);
#916 = ORIENTED_EDGE('',*,*,#917,.T.);
#917 = EDGE_CURVE('',#634,#389,#918,.T.);
#918 = SURFACE_CURVE('',#919,(#924,#931),.PCURVE_S1.);
#919 = CIRCLE('',#920,16.22);
#920 = AXIS2_PLACEMENT_3D('',#921,#922,#923);
#921 = CARTESIAN_POINT('',(0.,0.,-0.1));
#922 = DIRECTION('',(0.,0.,1.));
#923 = DIRECTION('',(1.,0.,-0.));
#924 = PCURVE('',#429,#925);
#925 = DEFINITIONAL_REPRESENTATION('',(#926),#930);
#926 = CIRCLE('',#927,16.22);
#927 = AXIS2_PLACEMENT_2D('',#928,#929);
#928 = CARTESIAN_POINT('',(0.,0.));
#929 = DIRECTION('',(1.,0.));
#930 = ( GEOMETRIC_REPRESENTATION_CONTEXT(2) 
PARAMETRIC_REPRESENTATION_CONTEXT() REPRESENTATION_CONTEXT('2D SPACE',''
  ) );
#931 = PCURVE('',#403,#932);
#932 = DEFINITIONAL_REPRESENTATION('',(#933),#937);
#933 = LINE('',#934,#935);
#934 = CARTESIAN_POINT('',(0.,0.5));
#935 = VECTOR('',#936,1.);
#936 = DIRECTION('',(1.,0.));
#937 = ( GEOMETRIC_REPRESENTATION_CONTEXT(2) 
PARAMETRIC_REPRESENTATION_CONTEXT() REPRESENTATION_CONTEXT('2D SPACE',''
  ) );
#938 = ORIENTED_EDGE('',*,*,#414,.F.);
#939 = ORIENTED_EDGE('',*,*,#888,.F.);
#940 = ADVANCED_FACE('',(#941,#968),#403,.F.);
#941 = FACE_BOUND('',#942,.F.);
#942 = EDGE_LOOP('',(#943,#944,#945,#946));
#943 = ORIENTED_EDGE('',*,*,#654,.F.);
#944 = ORIENTED_EDGE('',*,*,#917,.T.);
#945 = ORIENTED_EDGE('',*,*,#388,.T.);
#946 = ORIENTED_EDGE('',*,*,#947,.F.);
#947 = EDGE_CURVE('',#655,#363,#948,.T.);
#948 = SURFACE_CURVE('',#949,(#954,#961),.PCURVE_S1.);
#949 = CIRCLE('',#950,16.22);
#950 = AXIS2_PLACEMENT_3D('',#951,#952,#953);
#951 = CARTESIAN_POINT('',(0.,0.,7.85));
#952 = DIRECTION('',(0.,0.,1.));
#953 = DIRECTION('',(1.,0.,-0.));
#954 = PCURVE('',#403,#955);
#955 = DEFINITIONAL_REPRESENTATION('',(#956),#960);
#956 = LINE('',#957,#958);
#957 = CARTESIAN_POINT('',(0.,8.45));
#958 = VECTOR('',#959,1.);
#959 = DIRECTION('',(1.,0.));
#960 = ( GEOMETRIC_REPRESENTATION_CONTEXT(2) 
PARAMETRIC_REPRESENTATION_CONTEXT() REPRESENTATION_CONTEXT('2D SPACE',''
  ) );
#961 = PCURVE('',#377,#962);
#962 = DEFINITIONAL_REPRESENTATION('',(#963),#967);
#963 = CIRCLE('',#964,16.22);
#964 = AXIS2_PLACEMENT_2D('',#965,#966);
#965 = CARTESIAN_POINT('',(0.,0.));
#966 = DIRECTION('',(1.,0.));
#967 = ( GEOMETRIC_REPRESENTATION_CONTEXT(2) 
PARAMETRIC_REPRESENTATION_CONTEXT() REPRESENTATION_CONTEXT('2D SPACE',''
  ) );
#968 = FACE_BOUND('',#969,.F.);
#969 = EDGE_LOOP('',(#970,#1213));
#970 = ORIENTED_EDGE('',*,*,#971,.F.);
#971 = EDGE_CURVE('',#972,#974,#976,.T.);
#972 = VERTEX_POINT('',#973);
#973 = CARTESIAN_POINT('',(-0.772361507532,16.20160046729,5.25));
#974 = VERTEX_POINT('',#975);
#975 = CARTESIAN_POINT('',(0.772361507532,16.20160046729,5.25));
#976 = SURFACE_CURVE('',#977,(#1052,#1130),.PCURVE_S1.);
#977 = B_SPLINE_CURVE_WITH_KNOTS('',7,(#978,#979,#980,#981,#982,#983,
    #984,#985,#986,#987,#988,#989,#990,#991,#992,#993,#994,#995,#996,
    #997,#998,#999,#1000,#1001,#1002,#1003,#1004,#1005,#1006,#1007,#1008
    ,#1009,#1010,#1011,#1012,#1013,#1014,#1015,#1016,#1017,#1018,#1019,
    #1020,#1021,#1022,#1023,#1024,#1025,#1026,#1027,#1028,#1029,#1030,
    #1031,#1032,#1033,#1034,#1035,#1036,#1037,#1038,#1039,#1040,#1041,
    #1042,#1043,#1044,#1045,#1046,#1047,#1048,#1049,#1050,#1051),
  .UNSPECIFIED.,.F.,.F.,(8,6,6,6,6,6,6,6,6,6,6,6,8),(0.,0.240007017983,
    0.295081602313,0.326094474136,0.346673709424,0.396920440737,
    0.446069569382,0.49997444021,0.553879311039,0.603028439683,
    0.705253709231,0.760420735633,1.),.UNSPECIFIED.);
#978 = CARTESIAN_POINT('',(-0.772361507532,16.20160046729,5.2499994));
#979 = CARTESIAN_POINT('',(-0.772361565706,16.201600464516,
    5.329129706054));
#980 = CARTESIAN_POINT('',(-0.763412032183,16.202027165364,
    5.407975983596));
#981 = CARTESIAN_POINT('',(-0.745620401809,16.202875074373,
    5.486181766343));
#982 = CARTESIAN_POINT('',(-0.71871459073,16.204127097342,5.562983206022
    ));
#983 = CARTESIAN_POINT('',(-0.682423185322,16.205733212082,
    5.637265190711));
#984 = CARTESIAN_POINT('',(-0.636668008037,16.207593934681,
    5.707626034406));
#985 = CARTESIAN_POINT('',(-0.568841914292,16.210027123292,
    5.787354759272));
#986 = CARTESIAN_POINT('',(-0.555695409924,16.210487189945,
    5.801935422293));
#987 = CARTESIAN_POINT('',(-0.542066948156,16.21095140125,5.816193227374
    ));
#988 = CARTESIAN_POINT('',(-0.527964355203,16.211417809624,
    5.830103879319));
#989 = CARTESIAN_POINT('',(-0.513398266918,16.211884337023,
    5.843642131618));
#990 = CARTESIAN_POINT('',(-0.498382469679,16.212348804952,
    5.856782328277));
#991 = CARTESIAN_POINT('',(-0.474235239143,16.213068083424,
    5.876659759104));
#992 = CARTESIAN_POINT('',(-0.465399131596,16.213325837741,5.88368626842
    ));
#993 = CARTESIAN_POINT('',(-0.456429046243,16.213581821615,5.89057383827
    ));
#994 = CARTESIAN_POINT('',(-0.447328437898,16.213835628625,
    5.897317934372));
#995 = CARTESIAN_POINT('',(-0.438101088595,16.214086851738,
    5.903914123489));
#996 = CARTESIAN_POINT('',(-0.42875110758,16.214335083316,5.910358073428
    ));
#997 = CARTESIAN_POINT('',(-0.413000126289,16.214742378333,
    5.920817740734));
#998 = CARTESIAN_POINT('',(-0.406665268624,16.214903345641,
    5.924921044915));
#999 = CARTESIAN_POINT('',(-0.400279657575,16.215062698352,
    5.928954237351));
#1000 = CARTESIAN_POINT('',(-0.393844639505,16.215220319591,
    5.932916133847));
#1001 = CARTESIAN_POINT('',(-0.387361607894,16.215376094283,
    5.936805594245));
#1002 = CARTESIAN_POINT('',(-0.380832003339,16.215529909158,
    5.940621522421));
#1003 = CARTESIAN_POINT('',(-0.358204400666,16.216052153364,
    5.953497816992));
#1004 = CARTESIAN_POINT('',(-0.341882109196,16.216410326676,
    5.962188329542));
#1005 = CARTESIAN_POINT('',(-0.325313029577,16.216754518381,
    5.970418888709));
#1006 = CARTESIAN_POINT('',(-0.308519813472,16.217083219671,
    5.97817626978));
#1007 = CARTESIAN_POINT('',(-0.291525173765,16.217395067235,
    5.985449538556));
#1008 = CARTESIAN_POINT('',(-0.274351884566,16.217688843256,
    5.992230051351));
#1009 = CARTESIAN_POINT('',(-0.240072219291,16.21823210844,
    6.004655646022));
#1010 = CARTESIAN_POINT('',(-0.222971817127,16.218482442022,
    6.010322436999));
#1011 = CARTESIAN_POINT('',(-0.205742401551,16.218713489435,
    6.015505770816));
#1012 = CARTESIAN_POINT('',(-0.188403057648,16.21892443568,6.02020182705
    ));
#1013 = CARTESIAN_POINT('',(-0.170971228492,16.219114620308,
    6.024408480015));
#1014 = CARTESIAN_POINT('',(-0.153462814879,16.219283520242,
    6.028124756824));
#1015 = CARTESIAN_POINT('',(-0.116621583894,16.219592189441,
    6.03488794194));
#1016 = CARTESIAN_POINT('',(-9.727602701824E-02,16.219727558595,
    6.037835297645));
#1017 = CARTESIAN_POINT('',(-7.787400855448E-02,16.21983631758,
    6.040192150065));
#1018 = CARTESIAN_POINT('',(-5.843156487935E-02,16.219918105156,
    6.041958989046));
#1019 = CARTESIAN_POINT('',(-3.89630060447E-02,16.219972700103,
    6.043136556031));
#1020 = CARTESIAN_POINT('',(-1.948155719764E-02,16.22,6.043725393319));
#1021 = CARTESIAN_POINT('',(1.948155719676E-02,16.22,6.043725393319));
#1022 = CARTESIAN_POINT('',(3.896300604381E-02,16.219972700103,
    6.043136556031));
#1023 = CARTESIAN_POINT('',(5.843156487848E-02,16.219918105156,
    6.041958989046));
#1024 = CARTESIAN_POINT('',(7.787400855363E-02,16.21983631758,
    6.040192150065));
#1025 = CARTESIAN_POINT('',(9.727602701738E-02,16.219727558595,
    6.037835297645));
#1026 = CARTESIAN_POINT('',(0.116621583893,16.219592189441,
    6.034887941941));
#1027 = CARTESIAN_POINT('',(0.153462814878,16.219283520242,
    6.028124756824));
#1028 = CARTESIAN_POINT('',(0.170971228491,16.219114620308,
    6.024408480015));
#1029 = CARTESIAN_POINT('',(0.188403057647,16.21892443568,6.02020182705)
  );
#1030 = CARTESIAN_POINT('',(0.20574240155,16.218713489435,6.015505770817
    ));
#1031 = CARTESIAN_POINT('',(0.222971817126,16.218482442022,
    6.010322436999));
#1032 = CARTESIAN_POINT('',(0.24007221929,16.21823210844,6.004655646022)
  );
#1033 = CARTESIAN_POINT('',(0.292278253861,16.217404745607,
    5.985732152466));
#1034 = CARTESIAN_POINT('',(0.326898813976,16.21676664166,5.970882787474
    ));
#1035 = CARTESIAN_POINT('',(0.360675385323,16.216058264049,5.95402344146
    ));
#1036 = CARTESIAN_POINT('',(0.393413130391,16.215291504683,
    5.935247940079));
#1037 = CARTESIAN_POINT('',(0.424932288331,16.21448041551,5.914684955295
    ));
#1038 = CARTESIAN_POINT('',(0.455073901817,16.213640199682,
    5.892494406231));
#1039 = CARTESIAN_POINT('',(0.499164461655,16.212324752478,5.85610412936
    ));
#1040 = CARTESIAN_POINT('',(0.514184061697,16.211859438575,
    5.842925101003));
#1041 = CARTESIAN_POINT('',(0.528751976647,16.211392141412,
    5.829347721818));
#1042 = CARTESIAN_POINT('',(0.542854456503,16.210925046894,
    5.815397759151));
#1043 = CARTESIAN_POINT('',(0.556480912812,16.210460239047,
    5.801100555707));
#1044 = CARTESIAN_POINT('',(0.569623573935,16.209999670061,
    5.786480485673));
#1045 = CARTESIAN_POINT('',(0.637229025821,16.207571155943,
    5.706765536395));
#1046 = CARTESIAN_POINT('',(0.682791165361,16.20571688391,5.636508579194
    ));
#1047 = CARTESIAN_POINT('',(0.718936766751,16.204116819715,
    5.562354780136));
#1048 = CARTESIAN_POINT('',(0.745739425491,16.202869421384,
    5.485685799856));
#1049 = CARTESIAN_POINT('',(0.763460120471,16.202024860218,
    5.407612607704));
#1050 = CARTESIAN_POINT('',(0.772361565548,16.201600464524,
    5.328915516753));
#1051 = CARTESIAN_POINT('',(0.772361507532,16.20160046729,5.2499994));
#1052 = PCURVE('',#403,#1053);
#1053 = DEFINITIONAL_REPRESENTATION('',(#1054),#1129);
#1054 = B_SPLINE_CURVE_WITH_KNOTS('',9,(#1055,#1056,#1057,#1058,#1059,
    #1060,#1061,#1062,#1063,#1064,#1065,#1066,#1067,#1068,#1069,#1070,
    #1071,#1072,#1073,#1074,#1075,#1076,#1077,#1078,#1079,#1080,#1081,
    #1082,#1083,#1084,#1085,#1086,#1087,#1088,#1089,#1090,#1091,#1092,
    #1093,#1094,#1095,#1096,#1097,#1098,#1099,#1100,#1101,#1102,#1103,
    #1104,#1105,#1106,#1107,#1108,#1109,#1110,#1111,#1112,#1113,#1114,
    #1115,#1116,#1117,#1118,#1119,#1120,#1121,#1122,#1123,#1124,#1125,
    #1126,#1127,#1128),.UNSPECIFIED.,.F.,.F.,(10,8,8,8,8,8,8,8,8,10),(
    2.599766306889E-07,0.125000194952,0.234375138056,0.282226675664,
    0.461669941694,0.596252391216,0.697189228358,0.735040542286,
    0.768160441973,0.999999739782),.UNSPECIFIED.);
#1055 = CARTESIAN_POINT('',(1.618432189239,5.85));
#1056 = CARTESIAN_POINT('',(1.618432189239,5.882054146095));
#1057 = CARTESIAN_POINT('',(1.618344795418,5.914063338231));
#1058 = CARTESIAN_POINT('',(1.618170368411,5.946006626014));
#1059 = CARTESIAN_POINT('',(1.617908836169,5.977854686317));
#1060 = CARTESIAN_POINT('',(1.617559803251,6.009570221405));
#1061 = CARTESIAN_POINT('',(1.617122660109,6.041108357067));
#1062 = CARTESIAN_POINT('',(1.616596692381,6.072417040736));
#1063 = CARTESIAN_POINT('',(1.615981190177,6.103437439615));
#1064 = CARTESIAN_POINT('',(1.61465812866,6.160937875603));
#1065 = CARTESIAN_POINT('',(1.613971690951,6.187500764474));
#1066 = CARTESIAN_POINT('',(1.613215808499,6.213749368585));
#1067 = CARTESIAN_POINT('',(1.612390108323,6.239636304497));
#1068 = CARTESIAN_POINT('',(1.611494292262,6.265110711267));
#1069 = CARTESIAN_POINT('',(1.610528149035,6.290118519544));
#1070 = CARTESIAN_POINT('',(1.609491566301,6.314602720669));
#1071 = CARTESIAN_POINT('',(1.608384542715,6.338503635772));
#1072 = CARTESIAN_POINT('',(1.606692112551,6.371933487603));
#1073 = CARTESIAN_POINT('',(1.606163574262,6.381984130037));
#1074 = CARTESIAN_POINT('',(1.605621265749,6.391911749975));
#1075 = CARTESIAN_POINT('',(1.605067332494,6.401671361237));
#1076 = CARTESIAN_POINT('',(1.604498440797,6.411322660291));
#1077 = CARTESIAN_POINT('',(1.60391825827,6.420791066733));
#1078 = CARTESIAN_POINT('',(1.603324625211,6.430114985624));
#1079 = CARTESIAN_POINT('',(1.60271874518,6.43926815185));
#1080 = CARTESIAN_POINT('',(1.599782591351,6.481924592825));
#1081 = CARTESIAN_POINT('',(1.597292520029,6.513162879881));
#1082 = CARTESIAN_POINT('',(1.594643456544,6.541591843925));
#1083 = CARTESIAN_POINT('',(1.591853392532,6.566843931982));
#1084 = CARTESIAN_POINT('',(1.588950217613,6.588556727495));
#1085 = CARTESIAN_POINT('',(1.58596574413,6.606511360524));
#1086 = CARTESIAN_POINT('',(1.582927326656,6.620652693463));
#1087 = CARTESIAN_POINT('',(1.579853770424,6.630973081966));
#1088 = CARTESIAN_POINT('',(1.574440333155,6.64235796296));
#1089 = CARTESIAN_POINT('',(1.572109103623,6.645091589547));
#1090 = CARTESIAN_POINT('',(1.569773069889,6.645681196876));
#1091 = CARTESIAN_POINT('',(1.567437367656,6.644135005925));
#1092 = CARTESIAN_POINT('',(1.565106444764,6.640450949442));
#1093 = CARTESIAN_POINT('',(1.562785393779,6.634617873494));
#1094 = CARTESIAN_POINT('',(1.560481229018,6.626627655614));
#1095 = CARTESIAN_POINT('',(1.558203277122,6.616491034233));
#1096 = CARTESIAN_POINT('',(1.554280780069,6.595069126503));
#1097 = CARTESIAN_POINT('',(1.552620324402,6.584705053962));
#1098 = CARTESIAN_POINT('',(1.55098408727,6.573169541321));
#1099 = CARTESIAN_POINT('',(1.549378007313,6.56049663258));
#1100 = CARTESIAN_POINT('',(1.547807180356,6.546726360818));
#1101 = CARTESIAN_POINT('',(1.546275656255,6.531903670225));
#1102 = CARTESIAN_POINT('',(1.544787451727,6.516083420173));
#1103 = CARTESIAN_POINT('',(1.543347020881,6.499332391235));
#1104 = CARTESIAN_POINT('',(1.541436326779,6.475114271214));
#1105 = CARTESIAN_POINT('',(1.540922412971,6.468388487332));
#1106 = CARTESIAN_POINT('',(1.540415810373,6.461544917058));
#1107 = CARTESIAN_POINT('',(1.539916645189,6.454586771422));
#1108 = CARTESIAN_POINT('',(1.539425040828,6.447517378998));
#1109 = CARTESIAN_POINT('',(1.538941115538,6.440340148084));
#1110 = CARTESIAN_POINT('',(1.538464980036,6.433058528886));
#1111 = CARTESIAN_POINT('',(1.537996735141,6.425675975702));
#1112 = CARTESIAN_POINT('',(1.537133736891,6.411650850821));
#1113 = CARTESIAN_POINT('',(1.536737126695,6.405031407143));
#1114 = CARTESIAN_POINT('',(1.53634661416,6.398338186413));
#1115 = CARTESIAN_POINT('',(1.535962401592,6.391576415103));
#1116 = CARTESIAN_POINT('',(1.535584475557,6.384747162407));
#1117 = CARTESIAN_POINT('',(1.535212735405,6.377849812231));
#1118 = CARTESIAN_POINT('',(1.534847274897,6.370887599));
#1119 = CARTESIAN_POINT('',(1.534488398776,6.363868023705));
#1120 = CARTESIAN_POINT('',(1.531668857754,6.307243567014));
#1121 = CARTESIAN_POINT('',(1.529518041584,6.254850520395));
#1122 = CARTESIAN_POINT('',(1.527683961854,6.20019275559));
#1123 = CARTESIAN_POINT('',(1.526165326199,6.14380522692));
#1124 = CARTESIAN_POINT('',(1.524958679106,6.086164193158));
#1125 = CARTESIAN_POINT('',(1.524058897685,6.027676931484));
#1126 = CARTESIAN_POINT('',(1.523460599769,5.968672886442));
#1127 = CARTESIAN_POINT('',(1.523160464351,5.9093962539));
#1128 = CARTESIAN_POINT('',(1.523160464351,5.85));
#1129 = ( GEOMETRIC_REPRESENTATION_CONTEXT(2) 
PARAMETRIC_REPRESENTATION_CONTEXT() REPRESENTATION_CONTEXT('2D SPACE',''
  ) );
#1130 = PCURVE('',#1131,#1136);
#1131 = SPHERICAL_SURFACE('',#1132,1.2);
#1132 = AXIS2_PLACEMENT_3D('',#1133,#1134,#1135);
#1133 = CARTESIAN_POINT('',(0.,17.12,5.25));
#1134 = DIRECTION('',(0.,0.,1.));
#1135 = DIRECTION('',(1.,0.,-0.));
#1136 = DEFINITIONAL_REPRESENTATION('',(#1137),#1212);
#1137 = B_SPLINE_CURVE_WITH_KNOTS('',7,(#1138,#1139,#1140,#1141,#1142,
    #1143,#1144,#1145,#1146,#1147,#1148,#1149,#1150,#1151,#1152,#1153,
    #1154,#1155,#1156,#1157,#1158,#1159,#1160,#1161,#1162,#1163,#1164,
    #1165,#1166,#1167,#1168,#1169,#1170,#1171,#1172,#1173,#1174,#1175,
    #1176,#1177,#1178,#1179,#1180,#1181,#1182,#1183,#1184,#1185,#1186,
    #1187,#1188,#1189,#1190,#1191,#1192,#1193,#1194,#1195,#1196,#1197,
    #1198,#1199,#1200,#1201,#1202,#1203,#1204,#1205,#1206,#1207,#1208,
    #1209,#1210,#1211),.UNSPECIFIED.,.F.,.F.,(8,6,6,6,6,6,6,6,6,6,6,6,8)
  ,(0.,0.240007017983,0.295081602313,0.326094474136,0.346673709424,
    0.396920440737,0.446069569382,0.49997444021,0.553879311039,
    0.603028439683,0.705253709231,0.760420735633,1.),.UNSPECIFIED.);
#1138 = CARTESIAN_POINT('',(4.013151112231,-4.999999999219E-07));
#1139 = CARTESIAN_POINT('',(4.013151076617,6.59414217115E-02));
#1140 = CARTESIAN_POINT('',(4.018630920082,0.131646488383));
#1141 = CARTESIAN_POINT('',(4.029519743522,0.197286868622));
#1142 = CARTESIAN_POINT('',(4.046364746673,0.262677230906));
#1143 = CARTESIAN_POINT('',(4.07001992088,0.327350055461));
#1144 = CARTESIAN_POINT('',(4.101938518823,0.390448564274));
#1145 = CARTESIAN_POINT('',(4.153639227143,0.46425181747));
#1146 = CARTESIAN_POINT('',(4.163815989656,0.477855894101));
#1147 = CARTESIAN_POINT('',(4.174538432367,0.491267688263));
#1148 = CARTESIAN_POINT('',(4.18582433668,0.504462722733));
#1149 = CARTESIAN_POINT('',(4.197689609367,0.517413931954));
#1150 = CARTESIAN_POINT('',(4.210147061503,0.530091969585));
#1151 = CARTESIAN_POINT('',(4.230558306612,0.549433143951));
#1152 = CARTESIAN_POINT('',(4.238101829664,0.556304234935));
#1153 = CARTESIAN_POINT('',(4.245837312898,0.563073122514));
#1154 = CARTESIAN_POINT('',(4.253765748051,0.569734040219));
#1155 = CARTESIAN_POINT('',(4.261887562245,0.576281121598));
#1156 = CARTESIAN_POINT('',(4.270202617993,0.582708400218));
#1157 = CARTESIAN_POINT('',(4.284355604703,0.593191240787));
#1158 = CARTESIAN_POINT('',(4.290085760041,0.597317265869));
#1159 = CARTESIAN_POINT('',(4.295900454205,0.601386119869));
#1160 = CARTESIAN_POINT('',(4.301799326837,0.605396049575));
#1161 = CARTESIAN_POINT('',(4.307781882227,0.609345313605));
#1162 = CARTESIAN_POINT('',(4.313847489307,0.6132321824));
#1163 = CARTESIAN_POINT('',(4.335006216153,0.626388666255));
#1164 = CARTESIAN_POINT('',(4.350507922448,0.635340618558));
#1165 = CARTESIAN_POINT('',(4.366488849385,0.643885118743));
#1166 = CARTESIAN_POINT('',(4.38293269356,0.651998445226));
#1167 = CARTESIAN_POINT('',(4.399818499321,0.659658831228));
#1168 = CARTESIAN_POINT('',(4.417120658769,0.666846464785));
#1169 = CARTESIAN_POINT('',(4.452110777947,0.680094221162));
#1170 = CARTESIAN_POINT('',(4.469782657249,0.686175926994));
#1171 = CARTESIAN_POINT('',(4.487796590041,0.691772277338));
#1172 = CARTESIAN_POINT('',(4.506121757716,0.696869605907));
#1173 = CARTESIAN_POINT('',(4.524724925188,0.701456687795));
#1174 = CARTESIAN_POINT('',(4.543570883396,0.705524518245));
#1175 = CARTESIAN_POINT('',(4.583518400661,0.712950352444));
#1176 = CARTESIAN_POINT('',(4.604661927785,0.716201602764));
#1177 = CARTESIAN_POINT('',(4.626005870035,0.718810786743));
#1178 = CARTESIAN_POINT('',(4.647500911164,0.720771564237));
#1179 = CARTESIAN_POINT('',(4.669096746183,0.72207999912));
#1180 = CARTESIAN_POINT('',(4.690742805721,0.722734247813));
#1181 = CARTESIAN_POINT('',(4.734035155048,0.722734247813));
#1182 = CARTESIAN_POINT('',(4.755681214586,0.72207999912));
#1183 = CARTESIAN_POINT('',(4.777277049605,0.720771564237));
#1184 = CARTESIAN_POINT('',(4.798772090734,0.718810786744));
#1185 = CARTESIAN_POINT('',(4.820116032984,0.716201602764));
#1186 = CARTESIAN_POINT('',(4.841259560107,0.712950352445));
#1187 = CARTESIAN_POINT('',(4.881207077372,0.705524518246));
#1188 = CARTESIAN_POINT('',(4.900053035581,0.701456687795));
#1189 = CARTESIAN_POINT('',(4.918656203053,0.696869605907));
#1190 = CARTESIAN_POINT('',(4.936981370728,0.691772277338));
#1191 = CARTESIAN_POINT('',(4.95499530352,0.686175926994));
#1192 = CARTESIAN_POINT('',(4.972667182821,0.680094221162));
#1193 = CARTESIAN_POINT('',(5.0259551994,0.659918620792));
#1194 = CARTESIAN_POINT('',(5.060354392671,0.644259605272));
#1195 = CARTESIAN_POINT('',(5.092889561741,0.62671898033));
#1196 = CARTESIAN_POINT('',(5.123389098101,0.607489854934));
#1197 = CARTESIAN_POINT('',(5.15177476043,0.586787002015));
#1198 = CARTESIAN_POINT('',(5.178041416817,0.564832097635));
#1199 = CARTESIAN_POINT('',(5.215281519444,0.529436836123));
#1200 = CARTESIAN_POINT('',(5.227732138526,0.516726239191));
#1201 = CARTESIAN_POINT('',(5.239589148151,0.503742728614));
#1202 = CARTESIAN_POINT('',(5.250865525932,0.490515720327));
#1203 = CARTESIAN_POINT('',(5.261577332158,0.477072327025));
#1204 = CARTESIAN_POINT('',(5.271742485211,0.463437052223));
#1205 = CARTESIAN_POINT('',(5.323231308284,0.389676688546));
#1206 = CARTESIAN_POINT('',(5.354997164553,0.326691539227));
#1207 = CARTESIAN_POINT('',(5.378553577992,0.262141903449));
#1208 = CARTESIAN_POINT('',(5.395330608374,0.196869697993));
#1209 = CARTESIAN_POINT('',(5.406176736329,0.131343722525));
#1210 = CARTESIAN_POINT('',(5.411626884056,6.576293062739E-02));
#1211 = CARTESIAN_POINT('',(5.411626848538,-4.999999999219E-07));
#1212 = ( GEOMETRIC_REPRESENTATION_CONTEXT(2) 
PARAMETRIC_REPRESENTATION_CONTEXT() REPRESENTATION_CONTEXT('2D SPACE',''
  ) );
#1213 = ORIENTED_EDGE('',*,*,#1214,.F.);
#1214 = EDGE_CURVE('',#974,#972,#1215,.T.);
#1215 = SURFACE_CURVE('',#1216,(#1221,#1228),.PCURVE_S1.);
#1216 = CIRCLE('',#1217,16.22);
#1217 = AXIS2_PLACEMENT_3D('',#1218,#1219,#1220);
#1218 = CARTESIAN_POINT('',(0.,0.,5.25));
#1219 = DIRECTION('',(0.,0.,1.));
#1220 = DIRECTION('',(1.,0.,-0.));
#1221 = PCURVE('',#403,#1222);
#1222 = DEFINITIONAL_REPRESENTATION('',(#1223),#1227);
#1223 = LINE('',#1224,#1225);
#1224 = CARTESIAN_POINT('',(0.,5.85));
#1225 = VECTOR('',#1226,1.);
#1226 = DIRECTION('',(1.,0.));
#1227 = ( GEOMETRIC_REPRESENTATION_CONTEXT(2) 
PARAMETRIC_REPRESENTATION_CONTEXT() REPRESENTATION_CONTEXT('2D SPACE',''
  ) );
#1228 = PCURVE('',#1229,#1234);
#1229 = PLANE('',#1230);
#1230 = AXIS2_PLACEMENT_3D('',#1231,#1232,#1233);
#1231 = CARTESIAN_POINT('',(0.,0.,5.25));
#1232 = DIRECTION('',(0.,0.,1.));
#1233 = DIRECTION('',(1.,0.,-0.));
#1234 = DEFINITIONAL_REPRESENTATION('',(#1235),#1239);
#1235 = CIRCLE('',#1236,16.22);
#1236 = AXIS2_PLACEMENT_2D('',#1237,#1238);
#1237 = CARTESIAN_POINT('',(0.,0.));
#1238 = DIRECTION('',(1.,0.));
#1239 = ( GEOMETRIC_REPRESENTATION_CONTEXT(2) 
PARAMETRIC_REPRESENTATION_CONTEXT() REPRESENTATION_CONTEXT('2D SPACE',''
  ) );
#1240 = ADVANCED_FACE('',(#1241),#377,.F.);
#1241 = FACE_BOUND('',#1242,.F.);
#1242 = EDGE_LOOP('',(#1243,#1244,#1245,#1246));
#1243 = ORIENTED_EDGE('',*,*,#675,.F.);
#1244 = ORIENTED_EDGE('',*,*,#947,.T.);
#1245 = ORIENTED_EDGE('',*,*,#362,.F.);
#1246 = ORIENTED_EDGE('',*,*,#1247,.F.);
#1247 = EDGE_CURVE('',#676,#337,#1248,.T.);
#1248 = SURFACE_CURVE('',#1249,(#1254,#1261),.PCURVE_S1.);
#1249 = CIRCLE('',#1250,15.55);
#1250 = AXIS2_PLACEMENT_3D('',#1251,#1252,#1253);
#1251 = CARTESIAN_POINT('',(0.,0.,7.85));
#1252 = DIRECTION('',(0.,0.,1.));
#1253 = DIRECTION('',(1.,0.,-0.));
#1254 = PCURVE('',#377,#1255);
#1255 = DEFINITIONAL_REPRESENTATION('',(#1256),#1260);
#1256 = CIRCLE('',#1257,15.55);
#1257 = AXIS2_PLACEMENT_2D('',#1258,#1259);
#1258 = CARTESIAN_POINT('',(0.,0.));
#1259 = DIRECTION('',(1.,0.));
#1260 = ( GEOMETRIC_REPRESENTATION_CONTEXT(2) 
PARAMETRIC_REPRESENTATION_CONTEXT() REPRESENTATION_CONTEXT('2D SPACE',''
  ) );
#1261 = PCURVE('',#351,#1262);
#1262 = DEFINITIONAL_REPRESENTATION('',(#1263),#1267);
#1263 = LINE('',#1264,#1265);
#1264 = CARTESIAN_POINT('',(0.,0.));
#1265 = VECTOR('',#1266,1.);
#1266 = DIRECTION('',(1.,0.));
#1267 = ( GEOMETRIC_REPRESENTATION_CONTEXT(2) 
PARAMETRIC_REPRESENTATION_CONTEXT() REPRESENTATION_CONTEXT('2D SPACE',''
  ) );
#1268 = ADVANCED_FACE('',(#1269),#351,.F.);
#1269 = FACE_BOUND('',#1270,.F.);
#1270 = EDGE_LOOP('',(#1271,#1293,#1294,#1295));
#1271 = ORIENTED_EDGE('',*,*,#1272,.F.);
#1272 = EDGE_CURVE('',#697,#311,#1273,.T.);
#1273 = SURFACE_CURVE('',#1274,(#1279,#1286),.PCURVE_S1.);
#1274 = CIRCLE('',#1275,15.55);
#1275 = AXIS2_PLACEMENT_3D('',#1276,#1277,#1278);
#1276 = CARTESIAN_POINT('',(0.,0.,9.05));
#1277 = DIRECTION('',(0.,0.,1.));
#1278 = DIRECTION('',(1.,0.,-0.));
#1279 = PCURVE('',#351,#1280);
#1280 = DEFINITIONAL_REPRESENTATION('',(#1281),#1285);
#1281 = LINE('',#1282,#1283);
#1282 = CARTESIAN_POINT('',(0.,1.2));
#1283 = VECTOR('',#1284,1.);
#1284 = DIRECTION('',(1.,0.));
#1285 = ( GEOMETRIC_REPRESENTATION_CONTEXT(2) 
PARAMETRIC_REPRESENTATION_CONTEXT() REPRESENTATION_CONTEXT('2D SPACE',''
  ) );
#1286 = PCURVE('',#325,#1287);
#1287 = DEFINITIONAL_REPRESENTATION('',(#1288),#1292);
#1288 = CIRCLE('',#1289,15.55);
#1289 = AXIS2_PLACEMENT_2D('',#1290,#1291);
#1290 = CARTESIAN_POINT('',(0.,0.));
#1291 = DIRECTION('',(1.,0.));
#1292 = ( GEOMETRIC_REPRESENTATION_CONTEXT(2) 
PARAMETRIC_REPRESENTATION_CONTEXT() REPRESENTATION_CONTEXT('2D SPACE',''
  ) );
#1293 = ORIENTED_EDGE('',*,*,#696,.F.);
#1294 = ORIENTED_EDGE('',*,*,#1247,.T.);
#1295 = ORIENTED_EDGE('',*,*,#336,.T.);
#1296 = ADVANCED_FACE('',(#1297),#325,.T.);
#1297 = FACE_BOUND('',#1298,.T.);
#1298 = EDGE_LOOP('',(#1299,#1300,#1322,#1323));
#1299 = ORIENTED_EDGE('',*,*,#717,.F.);
#1300 = ORIENTED_EDGE('',*,*,#1301,.T.);
#1301 = EDGE_CURVE('',#718,#285,#1302,.T.);
#1302 = SURFACE_CURVE('',#1303,(#1308,#1315),.PCURVE_S1.);
#1303 = CIRCLE('',#1304,16.2);
#1304 = AXIS2_PLACEMENT_3D('',#1305,#1306,#1307);
#1305 = CARTESIAN_POINT('',(0.,0.,9.05));
#1306 = DIRECTION('',(0.,0.,1.));
#1307 = DIRECTION('',(1.,0.,-0.));
#1308 = PCURVE('',#325,#1309);
#1309 = DEFINITIONAL_REPRESENTATION('',(#1310),#1314);
#1310 = CIRCLE('',#1311,16.2);
#1311 = AXIS2_PLACEMENT_2D('',#1312,#1313);
#1312 = CARTESIAN_POINT('',(0.,0.));
#1313 = DIRECTION('',(1.,0.));
#1314 = ( GEOMETRIC_REPRESENTATION_CONTEXT(2) 
PARAMETRIC_REPRESENTATION_CONTEXT() REPRESENTATION_CONTEXT('2D SPACE',''
  ) );
#1315 = PCURVE('',#299,#1316);
#1316 = DEFINITIONAL_REPRESENTATION('',(#1317),#1321);
#1317 = LINE('',#1318,#1319);
#1318 = CARTESIAN_POINT('',(0.,0.));
#1319 = VECTOR('',#1320,1.);
#1320 = DIRECTION('',(1.,0.));
#1321 = ( GEOMETRIC_REPRESENTATION_CONTEXT(2) 
PARAMETRIC_REPRESENTATION_CONTEXT() REPRESENTATION_CONTEXT('2D SPACE',''
  ) );
#1322 = ORIENTED_EDGE('',*,*,#310,.F.);
#1323 = ORIENTED_EDGE('',*,*,#1272,.F.);
#1324 = ADVANCED_FACE('',(#1325),#299,.F.);
#1325 = FACE_BOUND('',#1326,.F.);
#1326 = EDGE_LOOP('',(#1327,#1349,#1350,#1351));
#1327 = ORIENTED_EDGE('',*,*,#1328,.F.);
#1328 = EDGE_CURVE('',#739,#259,#1329,.T.);
#1329 = SURFACE_CURVE('',#1330,(#1335,#1342),.PCURVE_S1.);
#1330 = CIRCLE('',#1331,16.2);
#1331 = AXIS2_PLACEMENT_3D('',#1332,#1333,#1334);
#1332 = CARTESIAN_POINT('',(0.,0.,10.65));
#1333 = DIRECTION('',(0.,0.,1.));
#1334 = DIRECTION('',(1.,0.,-0.));
#1335 = PCURVE('',#299,#1336);
#1336 = DEFINITIONAL_REPRESENTATION('',(#1337),#1341);
#1337 = LINE('',#1338,#1339);
#1338 = CARTESIAN_POINT('',(0.,1.6));
#1339 = VECTOR('',#1340,1.);
#1340 = DIRECTION('',(1.,0.));
#1341 = ( GEOMETRIC_REPRESENTATION_CONTEXT(2) 
PARAMETRIC_REPRESENTATION_CONTEXT() REPRESENTATION_CONTEXT('2D SPACE',''
  ) );
#1342 = PCURVE('',#273,#1343);
#1343 = DEFINITIONAL_REPRESENTATION('',(#1344),#1348);
#1344 = CIRCLE('',#1345,16.2);
#1345 = AXIS2_PLACEMENT_2D('',#1346,#1347);
#1346 = CARTESIAN_POINT('',(0.,0.));
#1347 = DIRECTION('',(1.,0.));
#1348 = ( GEOMETRIC_REPRESENTATION_CONTEXT(2) 
PARAMETRIC_REPRESENTATION_CONTEXT() REPRESENTATION_CONTEXT('2D SPACE',''
  ) );
#1349 = ORIENTED_EDGE('',*,*,#738,.F.);
#1350 = ORIENTED_EDGE('',*,*,#1301,.T.);
#1351 = ORIENTED_EDGE('',*,*,#284,.T.);
#1352 = ADVANCED_FACE('',(#1353),#273,.T.);
#1353 = FACE_BOUND('',#1354,.T.);
#1354 = EDGE_LOOP('',(#1355,#1356,#1357,#1358));
#1355 = ORIENTED_EDGE('',*,*,#759,.F.);
#1356 = ORIENTED_EDGE('',*,*,#804,.T.);
#1357 = ORIENTED_EDGE('',*,*,#258,.F.);
#1358 = ORIENTED_EDGE('',*,*,#1328,.F.);
#1359 = ADVANCED_FACE('',(#1360),#1131,.T.);
#1360 = FACE_BOUND('',#1361,.T.);
#1361 = EDGE_LOOP('',(#1362,#1363));
#1362 = ORIENTED_EDGE('',*,*,#971,.F.);
#1363 = ORIENTED_EDGE('',*,*,#1364,.T.);
#1364 = EDGE_CURVE('',#972,#974,#1365,.T.);
#1365 = SURFACE_CURVE('',#1366,(#1371,#1378),.PCURVE_S1.);
#1366 = CIRCLE('',#1367,1.2);
#1367 = AXIS2_PLACEMENT_3D('',#1368,#1369,#1370);
#1368 = CARTESIAN_POINT('',(0.,17.12,5.25));
#1369 = DIRECTION('',(0.,0.,1.));
#1370 = DIRECTION('',(-0.64363458961,-0.765332943925,0.));
#1371 = PCURVE('',#1131,#1372);
#1372 = DEFINITIONAL_REPRESENTATION('',(#1373),#1377);
#1373 = LINE('',#1374,#1375);
#1374 = CARTESIAN_POINT('',(4.013151112231,0.));
#1375 = VECTOR('',#1376,1.);
#1376 = DIRECTION('',(1.,0.));
#1377 = ( GEOMETRIC_REPRESENTATION_CONTEXT(2) 
PARAMETRIC_REPRESENTATION_CONTEXT() REPRESENTATION_CONTEXT('2D SPACE',''
  ) );
#1378 = PCURVE('',#1229,#1379);
#1379 = DEFINITIONAL_REPRESENTATION('',(#1380),#1384);
#1380 = CIRCLE('',#1381,1.2);
#1381 = AXIS2_PLACEMENT_2D('',#1382,#1383);
#1382 = CARTESIAN_POINT('',(0.,17.12));
#1383 = DIRECTION('',(-0.64363458961,-0.765332943925));
#1384 = ( GEOMETRIC_REPRESENTATION_CONTEXT(2) 
PARAMETRIC_REPRESENTATION_CONTEXT() REPRESENTATION_CONTEXT('2D SPACE',''
  ) );
#1385 = ADVANCED_FACE('',(#1386),#1229,.F.);
#1386 = FACE_BOUND('',#1387,.F.);
#1387 = EDGE_LOOP('',(#1388,#1389));
#1388 = ORIENTED_EDGE('',*,*,#1364,.T.);
#1389 = ORIENTED_EDGE('',*,*,#1214,.T.);
#1390 = ( GEOMETRIC_REPRESENTATION_CONTEXT(3) 
GLOBAL_UNCERTAINTY_ASSIGNED_CONTEXT((#1394)) 
GLOBAL_UNIT_ASSIGNED_CONTEXT((#1391,#1392,#1393)) REPRESENTATION_CONTEXT
('Context #1','3D Context with UNIT and UNCERTAINTY') );
#1391 = ( LENGTH_UNIT() NAMED_UNIT(*) SI_UNIT(.MILLI.,.METRE.) );
#1392 = ( NAMED_UNIT(*) PLANE_ANGLE_UNIT() SI_UNIT($,.RADIAN.) );
#1393 = ( NAMED_UNIT(*) SI_UNIT($,.STERADIAN.) SOLID_ANGLE_UNIT() );
#1394 = UNCERTAINTY_MEASURE_WITH_UNIT(LENGTH_MEASURE(2.E-07),#1391,
  'distance_accuracy_value','confusion accuracy');
#1395 = PRODUCT_RELATED_PRODUCT_CATEGORY('part',$,(#7));
ENDSEC;
END-ISO-10303-21;
